%TF.GenerationSoftware,KiCad,Pcbnew,9.0.6*%
%TF.CreationDate,2025-12-23T13:35:11+01:00*%
%TF.ProjectId,macropad,6d616372-6f70-4616-942e-6b696361645f,rev?*%
%TF.SameCoordinates,Original*%
%TF.FileFunction,Soldermask,Top*%
%TF.FilePolarity,Negative*%
%FSLAX46Y46*%
G04 Gerber Fmt 4.6, Leading zero omitted, Abs format (unit mm)*
G04 Created by KiCad (PCBNEW 9.0.6) date 2025-12-23 13:35:11*
%MOMM*%
%LPD*%
G01*
G04 APERTURE LIST*
G04 Aperture macros list*
%AMRoundRect*
0 Rectangle with rounded corners*
0 $1 Rounding radius*
0 $2 $3 $4 $5 $6 $7 $8 $9 X,Y pos of 4 corners*
0 Add a 4 corners polygon primitive as box body*
4,1,4,$2,$3,$4,$5,$6,$7,$8,$9,$2,$3,0*
0 Add four circle primitives for the rounded corners*
1,1,$1+$1,$2,$3*
1,1,$1+$1,$4,$5*
1,1,$1+$1,$6,$7*
1,1,$1+$1,$8,$9*
0 Add four rect primitives between the rounded corners*
20,1,$1+$1,$2,$3,$4,$5,0*
20,1,$1+$1,$4,$5,$6,$7,0*
20,1,$1+$1,$6,$7,$8,$9,0*
20,1,$1+$1,$8,$9,$2,$3,0*%
G04 Aperture macros list end*
%ADD10RoundRect,0.152400X1.063600X0.609600X-1.063600X0.609600X-1.063600X-0.609600X1.063600X-0.609600X0*%
%ADD11C,1.524000*%
%ADD12RoundRect,0.152400X-1.063600X-0.609600X1.063600X-0.609600X1.063600X0.609600X-1.063600X0.609600X0*%
%ADD13C,1.700000*%
%ADD14C,4.000000*%
%ADD15C,2.200000*%
%ADD16R,1.700000X1.700000*%
%ADD17O,1.700000X1.700000*%
G04 APERTURE END LIST*
D10*
X98925000Y-62510000D03*
D11*
X99760000Y-62510000D03*
D10*
X98925000Y-65050000D03*
D11*
X99760000Y-65050000D03*
D10*
X98925000Y-67590000D03*
D11*
X99760000Y-67590000D03*
D10*
X98925000Y-70130000D03*
D11*
X99760000Y-70130000D03*
D10*
X98925000Y-72670000D03*
D11*
X99760000Y-72670000D03*
D10*
X98925000Y-75210000D03*
D11*
X99760000Y-75210000D03*
D10*
X98925000Y-77750000D03*
D11*
X99760000Y-77750000D03*
X115000000Y-77750000D03*
D12*
X115835000Y-77750000D03*
D11*
X115000000Y-75210000D03*
D12*
X115835000Y-75210000D03*
D11*
X115000000Y-72670000D03*
D12*
X115835000Y-72670000D03*
D11*
X115000000Y-70130000D03*
D12*
X115835000Y-70130000D03*
D11*
X115000000Y-67590000D03*
D12*
X115835000Y-67590000D03*
D11*
X115000000Y-65050000D03*
D12*
X115835000Y-65050000D03*
D11*
X115000000Y-62510000D03*
D12*
X115835000Y-62510000D03*
D13*
X102380000Y-109130000D03*
D14*
X107460000Y-109130000D03*
D13*
X112540000Y-109130000D03*
D15*
X110000000Y-104050000D03*
X103650000Y-106590000D03*
D13*
X121430000Y-109130000D03*
D14*
X126510000Y-109130000D03*
D13*
X131590000Y-109130000D03*
D15*
X129050000Y-104050000D03*
X122700000Y-106590000D03*
D13*
X121430000Y-90080000D03*
D14*
X126510000Y-90080000D03*
D13*
X131590000Y-90080000D03*
D15*
X129050000Y-85000000D03*
X122700000Y-87540000D03*
D13*
X102380000Y-90080000D03*
D14*
X107460000Y-90080000D03*
D13*
X112540000Y-90080000D03*
D15*
X110000000Y-85000000D03*
X103650000Y-87540000D03*
D13*
X140480000Y-90080000D03*
D14*
X145560000Y-90080000D03*
D13*
X150640000Y-90080000D03*
D15*
X148100000Y-85000000D03*
X141750000Y-87540000D03*
D13*
X102380000Y-128180000D03*
D14*
X107460000Y-128180000D03*
D13*
X112540000Y-128180000D03*
D15*
X110000000Y-123100000D03*
X103650000Y-125640000D03*
D13*
X140480000Y-109130000D03*
D14*
X145560000Y-109130000D03*
D13*
X150640000Y-109130000D03*
D15*
X148100000Y-104050000D03*
X141750000Y-106590000D03*
D13*
X121430000Y-128180000D03*
D14*
X126510000Y-128180000D03*
D13*
X131590000Y-128180000D03*
D15*
X129050000Y-123100000D03*
X122700000Y-125640000D03*
D13*
X140480000Y-128180000D03*
D14*
X145560000Y-128180000D03*
D13*
X150640000Y-128180000D03*
D15*
X148100000Y-123100000D03*
X141750000Y-125640000D03*
D16*
X121000000Y-73876500D03*
D17*
X121000000Y-71336500D03*
X121000000Y-68796500D03*
X121000000Y-66256500D03*
M02*
