M48
; DRILL file {KiCad 9.0.6} date 2025-12-23T13:38:57+0100
; FORMAT={-:-/ absolute / metric / decimal}
; #@! TF.CreationDate,2025-12-23T13:38:57+01:00
; #@! TF.GenerationSoftware,Kicad,Pcbnew,9.0.6
; #@! TF.FileFunction,NonPlated,1,2,NPTH
FMAT,2
METRIC
; #@! TA.AperFunction,NonPlated,NPTH,ComponentDrill
T1C1.700
; #@! TA.AperFunction,NonPlated,NPTH,ComponentDrill
T2C4.000
%
G90
G05
T1
X102.38Y-90.08
X102.38Y-109.13
X102.38Y-128.18
X112.54Y-90.08
X112.54Y-109.13
X112.54Y-128.18
X121.43Y-90.08
X121.43Y-109.13
X121.43Y-128.18
X131.59Y-90.08
X131.59Y-109.13
X131.59Y-128.18
X140.48Y-90.08
X140.48Y-109.13
X140.48Y-128.18
X150.64Y-90.08
X150.64Y-109.13
X150.64Y-128.18
T2
X107.46Y-90.08
X107.46Y-109.13
X107.46Y-128.18
X126.51Y-90.08
X126.51Y-109.13
X126.51Y-128.18
X145.56Y-90.08
X145.56Y-109.13
X145.56Y-128.18
M30
