%TF.GenerationSoftware,KiCad,Pcbnew,9.0.6*%
%TF.CreationDate,2025-12-23T13:35:11+01:00*%
%TF.ProjectId,macropad,6d616372-6f70-4616-942e-6b696361645f,rev?*%
%TF.SameCoordinates,Original*%
%TF.FileFunction,Legend,Top*%
%TF.FilePolarity,Positive*%
%FSLAX46Y46*%
G04 Gerber Fmt 4.6, Leading zero omitted, Abs format (unit mm)*
G04 Created by KiCad (PCBNEW 9.0.6) date 2025-12-23 13:35:11*
%MOMM*%
%LPD*%
G01*
G04 APERTURE LIST*
G04 Aperture macros list*
%AMRoundRect*
0 Rectangle with rounded corners*
0 $1 Rounding radius*
0 $2 $3 $4 $5 $6 $7 $8 $9 X,Y pos of 4 corners*
0 Add a 4 corners polygon primitive as box body*
4,1,4,$2,$3,$4,$5,$6,$7,$8,$9,$2,$3,0*
0 Add four circle primitives for the rounded corners*
1,1,$1+$1,$2,$3*
1,1,$1+$1,$4,$5*
1,1,$1+$1,$6,$7*
1,1,$1+$1,$8,$9*
0 Add four rect primitives between the rounded corners*
20,1,$1+$1,$2,$3,$4,$5,0*
20,1,$1+$1,$4,$5,$6,$7,0*
20,1,$1+$1,$6,$7,$8,$9,0*
20,1,$1+$1,$8,$9,$2,$3,0*%
G04 Aperture macros list end*
%ADD10C,0.300000*%
%ADD11C,0.101600*%
%ADD12C,0.150000*%
%ADD13C,0.127000*%
%ADD14C,0.100000*%
%ADD15C,0.504000*%
%ADD16C,0.120000*%
%ADD17C,0.040000*%
%ADD18RoundRect,0.152400X1.063600X0.609600X-1.063600X0.609600X-1.063600X-0.609600X1.063600X-0.609600X0*%
%ADD19C,1.524000*%
%ADD20RoundRect,0.152400X-1.063600X-0.609600X1.063600X-0.609600X1.063600X0.609600X-1.063600X0.609600X0*%
%ADD21C,1.700000*%
%ADD22C,4.000000*%
%ADD23C,2.200000*%
%ADD24R,1.700000X1.700000*%
%ADD25O,1.700000X1.700000*%
G04 APERTURE END LIST*
D10*
X156485171Y-81842225D02*
X156485171Y-82127939D01*
X156485171Y-82127939D02*
X156413742Y-82270796D01*
X156413742Y-82270796D02*
X156270885Y-82413653D01*
X156270885Y-82413653D02*
X155985171Y-82485082D01*
X155985171Y-82485082D02*
X155485171Y-82485082D01*
X155485171Y-82485082D02*
X155199457Y-82413653D01*
X155199457Y-82413653D02*
X155056600Y-82270796D01*
X155056600Y-82270796D02*
X154985171Y-82127939D01*
X154985171Y-82127939D02*
X154985171Y-81842225D01*
X154985171Y-81842225D02*
X155056600Y-81699368D01*
X155056600Y-81699368D02*
X155199457Y-81556510D01*
X155199457Y-81556510D02*
X155485171Y-81485082D01*
X155485171Y-81485082D02*
X155985171Y-81485082D01*
X155985171Y-81485082D02*
X156270885Y-81556510D01*
X156270885Y-81556510D02*
X156413742Y-81699368D01*
X156413742Y-81699368D02*
X156485171Y-81842225D01*
X154985171Y-83842225D02*
X154985171Y-83127939D01*
X154985171Y-83127939D02*
X156485171Y-83127939D01*
X155770885Y-84342225D02*
X155770885Y-84842225D01*
X154985171Y-85056511D02*
X154985171Y-84342225D01*
X154985171Y-84342225D02*
X156485171Y-84342225D01*
X156485171Y-84342225D02*
X156485171Y-85056511D01*
X156485171Y-86127940D02*
X155413742Y-86127940D01*
X155413742Y-86127940D02*
X155199457Y-86056511D01*
X155199457Y-86056511D02*
X155056600Y-85913654D01*
X155056600Y-85913654D02*
X154985171Y-85699368D01*
X154985171Y-85699368D02*
X154985171Y-85556511D01*
X154985171Y-86842225D02*
X156485171Y-86842225D01*
X156485171Y-86842225D02*
X154985171Y-87699368D01*
X154985171Y-87699368D02*
X156485171Y-87699368D01*
X154985171Y-88413654D02*
X156485171Y-88413654D01*
X154985171Y-89127940D02*
X156485171Y-89127940D01*
X154985171Y-89985083D02*
X155842314Y-89342226D01*
X156485171Y-89985083D02*
X155628028Y-89127940D01*
X154985171Y-91770797D02*
X156485171Y-91770797D01*
X154985171Y-92485083D02*
X156485171Y-92485083D01*
X156485171Y-92485083D02*
X154985171Y-93342226D01*
X154985171Y-93342226D02*
X156485171Y-93342226D01*
X154985171Y-94056512D02*
X156485171Y-94056512D01*
X156485171Y-94056512D02*
X156485171Y-94413655D01*
X156485171Y-94413655D02*
X156413742Y-94627941D01*
X156413742Y-94627941D02*
X156270885Y-94770798D01*
X156270885Y-94770798D02*
X156128028Y-94842227D01*
X156128028Y-94842227D02*
X155842314Y-94913655D01*
X155842314Y-94913655D02*
X155628028Y-94913655D01*
X155628028Y-94913655D02*
X155342314Y-94842227D01*
X155342314Y-94842227D02*
X155199457Y-94770798D01*
X155199457Y-94770798D02*
X155056600Y-94627941D01*
X155056600Y-94627941D02*
X154985171Y-94413655D01*
X154985171Y-94413655D02*
X154985171Y-94056512D01*
X156485171Y-95556512D02*
X155270885Y-95556512D01*
X155270885Y-95556512D02*
X155128028Y-95627941D01*
X155128028Y-95627941D02*
X155056600Y-95699370D01*
X155056600Y-95699370D02*
X154985171Y-95842227D01*
X154985171Y-95842227D02*
X154985171Y-96127941D01*
X154985171Y-96127941D02*
X155056600Y-96270798D01*
X155056600Y-96270798D02*
X155128028Y-96342227D01*
X155128028Y-96342227D02*
X155270885Y-96413655D01*
X155270885Y-96413655D02*
X156485171Y-96413655D01*
X155056600Y-97056513D02*
X154985171Y-97270799D01*
X154985171Y-97270799D02*
X154985171Y-97627941D01*
X154985171Y-97627941D02*
X155056600Y-97770799D01*
X155056600Y-97770799D02*
X155128028Y-97842227D01*
X155128028Y-97842227D02*
X155270885Y-97913656D01*
X155270885Y-97913656D02*
X155413742Y-97913656D01*
X155413742Y-97913656D02*
X155556600Y-97842227D01*
X155556600Y-97842227D02*
X155628028Y-97770799D01*
X155628028Y-97770799D02*
X155699457Y-97627941D01*
X155699457Y-97627941D02*
X155770885Y-97342227D01*
X155770885Y-97342227D02*
X155842314Y-97199370D01*
X155842314Y-97199370D02*
X155913742Y-97127941D01*
X155913742Y-97127941D02*
X156056600Y-97056513D01*
X156056600Y-97056513D02*
X156199457Y-97056513D01*
X156199457Y-97056513D02*
X156342314Y-97127941D01*
X156342314Y-97127941D02*
X156413742Y-97199370D01*
X156413742Y-97199370D02*
X156485171Y-97342227D01*
X156485171Y-97342227D02*
X156485171Y-97699370D01*
X156485171Y-97699370D02*
X156413742Y-97913656D01*
X156485171Y-98342227D02*
X156485171Y-99199370D01*
X154985171Y-98770798D02*
X156485171Y-98770798D01*
X154985171Y-100556512D02*
X155699457Y-100056512D01*
X154985171Y-99699369D02*
X156485171Y-99699369D01*
X156485171Y-99699369D02*
X156485171Y-100270798D01*
X156485171Y-100270798D02*
X156413742Y-100413655D01*
X156413742Y-100413655D02*
X156342314Y-100485084D01*
X156342314Y-100485084D02*
X156199457Y-100556512D01*
X156199457Y-100556512D02*
X155985171Y-100556512D01*
X155985171Y-100556512D02*
X155842314Y-100485084D01*
X155842314Y-100485084D02*
X155770885Y-100413655D01*
X155770885Y-100413655D02*
X155699457Y-100270798D01*
X155699457Y-100270798D02*
X155699457Y-99699369D01*
X154985171Y-101199369D02*
X156485171Y-101199369D01*
X155770885Y-101913655D02*
X155770885Y-102413655D01*
X154985171Y-102627941D02*
X154985171Y-101913655D01*
X154985171Y-101913655D02*
X156485171Y-101913655D01*
X156485171Y-101913655D02*
X156485171Y-102627941D01*
X155056600Y-103199370D02*
X154985171Y-103413656D01*
X154985171Y-103413656D02*
X154985171Y-103770798D01*
X154985171Y-103770798D02*
X155056600Y-103913656D01*
X155056600Y-103913656D02*
X155128028Y-103985084D01*
X155128028Y-103985084D02*
X155270885Y-104056513D01*
X155270885Y-104056513D02*
X155413742Y-104056513D01*
X155413742Y-104056513D02*
X155556600Y-103985084D01*
X155556600Y-103985084D02*
X155628028Y-103913656D01*
X155628028Y-103913656D02*
X155699457Y-103770798D01*
X155699457Y-103770798D02*
X155770885Y-103485084D01*
X155770885Y-103485084D02*
X155842314Y-103342227D01*
X155842314Y-103342227D02*
X155913742Y-103270798D01*
X155913742Y-103270798D02*
X156056600Y-103199370D01*
X156056600Y-103199370D02*
X156199457Y-103199370D01*
X156199457Y-103199370D02*
X156342314Y-103270798D01*
X156342314Y-103270798D02*
X156413742Y-103342227D01*
X156413742Y-103342227D02*
X156485171Y-103485084D01*
X156485171Y-103485084D02*
X156485171Y-103842227D01*
X156485171Y-103842227D02*
X156413742Y-104056513D01*
X154985171Y-105842226D02*
X156485171Y-105842226D01*
X156485171Y-105842226D02*
X155413742Y-106342226D01*
X155413742Y-106342226D02*
X156485171Y-106842226D01*
X156485171Y-106842226D02*
X154985171Y-106842226D01*
X154985171Y-108199370D02*
X155770885Y-108199370D01*
X155770885Y-108199370D02*
X155913742Y-108127941D01*
X155913742Y-108127941D02*
X155985171Y-107985084D01*
X155985171Y-107985084D02*
X155985171Y-107699370D01*
X155985171Y-107699370D02*
X155913742Y-107556512D01*
X155056600Y-108199370D02*
X154985171Y-108056512D01*
X154985171Y-108056512D02*
X154985171Y-107699370D01*
X154985171Y-107699370D02*
X155056600Y-107556512D01*
X155056600Y-107556512D02*
X155199457Y-107485084D01*
X155199457Y-107485084D02*
X155342314Y-107485084D01*
X155342314Y-107485084D02*
X155485171Y-107556512D01*
X155485171Y-107556512D02*
X155556600Y-107699370D01*
X155556600Y-107699370D02*
X155556600Y-108056512D01*
X155556600Y-108056512D02*
X155628028Y-108199370D01*
X155056600Y-109556513D02*
X154985171Y-109413655D01*
X154985171Y-109413655D02*
X154985171Y-109127941D01*
X154985171Y-109127941D02*
X155056600Y-108985084D01*
X155056600Y-108985084D02*
X155128028Y-108913655D01*
X155128028Y-108913655D02*
X155270885Y-108842227D01*
X155270885Y-108842227D02*
X155699457Y-108842227D01*
X155699457Y-108842227D02*
X155842314Y-108913655D01*
X155842314Y-108913655D02*
X155913742Y-108985084D01*
X155913742Y-108985084D02*
X155985171Y-109127941D01*
X155985171Y-109127941D02*
X155985171Y-109413655D01*
X155985171Y-109413655D02*
X155913742Y-109556513D01*
X154985171Y-110199369D02*
X155985171Y-110199369D01*
X155699457Y-110199369D02*
X155842314Y-110270798D01*
X155842314Y-110270798D02*
X155913742Y-110342227D01*
X155913742Y-110342227D02*
X155985171Y-110485084D01*
X155985171Y-110485084D02*
X155985171Y-110627941D01*
X154985171Y-111342226D02*
X155056600Y-111199369D01*
X155056600Y-111199369D02*
X155128028Y-111127940D01*
X155128028Y-111127940D02*
X155270885Y-111056512D01*
X155270885Y-111056512D02*
X155699457Y-111056512D01*
X155699457Y-111056512D02*
X155842314Y-111127940D01*
X155842314Y-111127940D02*
X155913742Y-111199369D01*
X155913742Y-111199369D02*
X155985171Y-111342226D01*
X155985171Y-111342226D02*
X155985171Y-111556512D01*
X155985171Y-111556512D02*
X155913742Y-111699369D01*
X155913742Y-111699369D02*
X155842314Y-111770798D01*
X155842314Y-111770798D02*
X155699457Y-111842226D01*
X155699457Y-111842226D02*
X155270885Y-111842226D01*
X155270885Y-111842226D02*
X155128028Y-111770798D01*
X155128028Y-111770798D02*
X155056600Y-111699369D01*
X155056600Y-111699369D02*
X154985171Y-111556512D01*
X154985171Y-111556512D02*
X154985171Y-111342226D01*
X155985171Y-112485083D02*
X154485171Y-112485083D01*
X155913742Y-112485083D02*
X155985171Y-112627941D01*
X155985171Y-112627941D02*
X155985171Y-112913655D01*
X155985171Y-112913655D02*
X155913742Y-113056512D01*
X155913742Y-113056512D02*
X155842314Y-113127941D01*
X155842314Y-113127941D02*
X155699457Y-113199369D01*
X155699457Y-113199369D02*
X155270885Y-113199369D01*
X155270885Y-113199369D02*
X155128028Y-113127941D01*
X155128028Y-113127941D02*
X155056600Y-113056512D01*
X155056600Y-113056512D02*
X154985171Y-112913655D01*
X154985171Y-112913655D02*
X154985171Y-112627941D01*
X154985171Y-112627941D02*
X155056600Y-112485083D01*
X154985171Y-114485084D02*
X155770885Y-114485084D01*
X155770885Y-114485084D02*
X155913742Y-114413655D01*
X155913742Y-114413655D02*
X155985171Y-114270798D01*
X155985171Y-114270798D02*
X155985171Y-113985084D01*
X155985171Y-113985084D02*
X155913742Y-113842226D01*
X155056600Y-114485084D02*
X154985171Y-114342226D01*
X154985171Y-114342226D02*
X154985171Y-113985084D01*
X154985171Y-113985084D02*
X155056600Y-113842226D01*
X155056600Y-113842226D02*
X155199457Y-113770798D01*
X155199457Y-113770798D02*
X155342314Y-113770798D01*
X155342314Y-113770798D02*
X155485171Y-113842226D01*
X155485171Y-113842226D02*
X155556600Y-113985084D01*
X155556600Y-113985084D02*
X155556600Y-114342226D01*
X155556600Y-114342226D02*
X155628028Y-114485084D01*
X154985171Y-115842227D02*
X156485171Y-115842227D01*
X155056600Y-115842227D02*
X154985171Y-115699369D01*
X154985171Y-115699369D02*
X154985171Y-115413655D01*
X154985171Y-115413655D02*
X155056600Y-115270798D01*
X155056600Y-115270798D02*
X155128028Y-115199369D01*
X155128028Y-115199369D02*
X155270885Y-115127941D01*
X155270885Y-115127941D02*
X155699457Y-115127941D01*
X155699457Y-115127941D02*
X155842314Y-115199369D01*
X155842314Y-115199369D02*
X155913742Y-115270798D01*
X155913742Y-115270798D02*
X155985171Y-115413655D01*
X155985171Y-115413655D02*
X155985171Y-115699369D01*
X155985171Y-115699369D02*
X155913742Y-115842227D01*
D11*
X101856190Y-69694811D02*
X102389524Y-70494811D01*
X102389524Y-69694811D02*
X101856190Y-70494811D01*
X102694286Y-70494811D02*
X102694286Y-69694811D01*
X103037142Y-70266239D02*
X103418095Y-70266239D01*
X102960952Y-70494811D02*
X103227619Y-69694811D01*
X103227619Y-69694811D02*
X103494285Y-70494811D01*
X103913333Y-69694811D02*
X104065714Y-69694811D01*
X104065714Y-69694811D02*
X104141904Y-69732906D01*
X104141904Y-69732906D02*
X104218095Y-69809096D01*
X104218095Y-69809096D02*
X104256190Y-69961477D01*
X104256190Y-69961477D02*
X104256190Y-70228144D01*
X104256190Y-70228144D02*
X104218095Y-70380525D01*
X104218095Y-70380525D02*
X104141904Y-70456716D01*
X104141904Y-70456716D02*
X104065714Y-70494811D01*
X104065714Y-70494811D02*
X103913333Y-70494811D01*
X103913333Y-70494811D02*
X103837142Y-70456716D01*
X103837142Y-70456716D02*
X103760952Y-70380525D01*
X103760952Y-70380525D02*
X103722856Y-70228144D01*
X103722856Y-70228144D02*
X103722856Y-69961477D01*
X103722856Y-69961477D02*
X103760952Y-69809096D01*
X103760952Y-69809096D02*
X103837142Y-69732906D01*
X103837142Y-69732906D02*
X103913333Y-69694811D01*
X104599047Y-70190049D02*
X105208571Y-70190049D01*
X106046666Y-70494811D02*
X105779999Y-70113858D01*
X105589523Y-70494811D02*
X105589523Y-69694811D01*
X105589523Y-69694811D02*
X105894285Y-69694811D01*
X105894285Y-69694811D02*
X105970475Y-69732906D01*
X105970475Y-69732906D02*
X106008570Y-69771001D01*
X106008570Y-69771001D02*
X106046666Y-69847192D01*
X106046666Y-69847192D02*
X106046666Y-69961477D01*
X106046666Y-69961477D02*
X106008570Y-70037668D01*
X106008570Y-70037668D02*
X105970475Y-70075763D01*
X105970475Y-70075763D02*
X105894285Y-70113858D01*
X105894285Y-70113858D02*
X105589523Y-70113858D01*
X106389523Y-70494811D02*
X106389523Y-69694811D01*
X106389523Y-69694811D02*
X106694285Y-69694811D01*
X106694285Y-69694811D02*
X106770475Y-69732906D01*
X106770475Y-69732906D02*
X106808570Y-69771001D01*
X106808570Y-69771001D02*
X106846666Y-69847192D01*
X106846666Y-69847192D02*
X106846666Y-69961477D01*
X106846666Y-69961477D02*
X106808570Y-70037668D01*
X106808570Y-70037668D02*
X106770475Y-70075763D01*
X106770475Y-70075763D02*
X106694285Y-70113858D01*
X106694285Y-70113858D02*
X106389523Y-70113858D01*
X107151427Y-69771001D02*
X107189523Y-69732906D01*
X107189523Y-69732906D02*
X107265713Y-69694811D01*
X107265713Y-69694811D02*
X107456189Y-69694811D01*
X107456189Y-69694811D02*
X107532380Y-69732906D01*
X107532380Y-69732906D02*
X107570475Y-69771001D01*
X107570475Y-69771001D02*
X107608570Y-69847192D01*
X107608570Y-69847192D02*
X107608570Y-69923382D01*
X107608570Y-69923382D02*
X107570475Y-70037668D01*
X107570475Y-70037668D02*
X107113332Y-70494811D01*
X107113332Y-70494811D02*
X107608570Y-70494811D01*
X108103809Y-69694811D02*
X108179999Y-69694811D01*
X108179999Y-69694811D02*
X108256190Y-69732906D01*
X108256190Y-69732906D02*
X108294285Y-69771001D01*
X108294285Y-69771001D02*
X108332380Y-69847192D01*
X108332380Y-69847192D02*
X108370475Y-69999573D01*
X108370475Y-69999573D02*
X108370475Y-70190049D01*
X108370475Y-70190049D02*
X108332380Y-70342430D01*
X108332380Y-70342430D02*
X108294285Y-70418620D01*
X108294285Y-70418620D02*
X108256190Y-70456716D01*
X108256190Y-70456716D02*
X108179999Y-70494811D01*
X108179999Y-70494811D02*
X108103809Y-70494811D01*
X108103809Y-70494811D02*
X108027618Y-70456716D01*
X108027618Y-70456716D02*
X107989523Y-70418620D01*
X107989523Y-70418620D02*
X107951428Y-70342430D01*
X107951428Y-70342430D02*
X107913332Y-70190049D01*
X107913332Y-70190049D02*
X107913332Y-69999573D01*
X107913332Y-69999573D02*
X107951428Y-69847192D01*
X107951428Y-69847192D02*
X107989523Y-69771001D01*
X107989523Y-69771001D02*
X108027618Y-69732906D01*
X108027618Y-69732906D02*
X108103809Y-69694811D01*
X109056190Y-69961477D02*
X109056190Y-70494811D01*
X108865714Y-69656716D02*
X108675237Y-70228144D01*
X108675237Y-70228144D02*
X109170476Y-70228144D01*
X109627619Y-69694811D02*
X109703809Y-69694811D01*
X109703809Y-69694811D02*
X109780000Y-69732906D01*
X109780000Y-69732906D02*
X109818095Y-69771001D01*
X109818095Y-69771001D02*
X109856190Y-69847192D01*
X109856190Y-69847192D02*
X109894285Y-69999573D01*
X109894285Y-69999573D02*
X109894285Y-70190049D01*
X109894285Y-70190049D02*
X109856190Y-70342430D01*
X109856190Y-70342430D02*
X109818095Y-70418620D01*
X109818095Y-70418620D02*
X109780000Y-70456716D01*
X109780000Y-70456716D02*
X109703809Y-70494811D01*
X109703809Y-70494811D02*
X109627619Y-70494811D01*
X109627619Y-70494811D02*
X109551428Y-70456716D01*
X109551428Y-70456716D02*
X109513333Y-70418620D01*
X109513333Y-70418620D02*
X109475238Y-70342430D01*
X109475238Y-70342430D02*
X109437142Y-70190049D01*
X109437142Y-70190049D02*
X109437142Y-69999573D01*
X109437142Y-69999573D02*
X109475238Y-69847192D01*
X109475238Y-69847192D02*
X109513333Y-69771001D01*
X109513333Y-69771001D02*
X109551428Y-69732906D01*
X109551428Y-69732906D02*
X109627619Y-69694811D01*
X110237143Y-70190049D02*
X110846667Y-70190049D01*
X111227619Y-70494811D02*
X111227619Y-69694811D01*
X111227619Y-69694811D02*
X111418095Y-69694811D01*
X111418095Y-69694811D02*
X111532381Y-69732906D01*
X111532381Y-69732906D02*
X111608571Y-69809096D01*
X111608571Y-69809096D02*
X111646666Y-69885287D01*
X111646666Y-69885287D02*
X111684762Y-70037668D01*
X111684762Y-70037668D02*
X111684762Y-70151954D01*
X111684762Y-70151954D02*
X111646666Y-70304335D01*
X111646666Y-70304335D02*
X111608571Y-70380525D01*
X111608571Y-70380525D02*
X111532381Y-70456716D01*
X111532381Y-70456716D02*
X111418095Y-70494811D01*
X111418095Y-70494811D02*
X111227619Y-70494811D01*
X112027619Y-70494811D02*
X112027619Y-69694811D01*
X112408571Y-70494811D02*
X112408571Y-69694811D01*
X112408571Y-69694811D02*
X112713333Y-69694811D01*
X112713333Y-69694811D02*
X112789523Y-69732906D01*
X112789523Y-69732906D02*
X112827618Y-69771001D01*
X112827618Y-69771001D02*
X112865714Y-69847192D01*
X112865714Y-69847192D02*
X112865714Y-69961477D01*
X112865714Y-69961477D02*
X112827618Y-70037668D01*
X112827618Y-70037668D02*
X112789523Y-70075763D01*
X112789523Y-70075763D02*
X112713333Y-70113858D01*
X112713333Y-70113858D02*
X112408571Y-70113858D01*
D12*
X106126667Y-101663200D02*
X106269524Y-101710819D01*
X106269524Y-101710819D02*
X106507619Y-101710819D01*
X106507619Y-101710819D02*
X106602857Y-101663200D01*
X106602857Y-101663200D02*
X106650476Y-101615580D01*
X106650476Y-101615580D02*
X106698095Y-101520342D01*
X106698095Y-101520342D02*
X106698095Y-101425104D01*
X106698095Y-101425104D02*
X106650476Y-101329866D01*
X106650476Y-101329866D02*
X106602857Y-101282247D01*
X106602857Y-101282247D02*
X106507619Y-101234628D01*
X106507619Y-101234628D02*
X106317143Y-101187009D01*
X106317143Y-101187009D02*
X106221905Y-101139390D01*
X106221905Y-101139390D02*
X106174286Y-101091771D01*
X106174286Y-101091771D02*
X106126667Y-100996533D01*
X106126667Y-100996533D02*
X106126667Y-100901295D01*
X106126667Y-100901295D02*
X106174286Y-100806057D01*
X106174286Y-100806057D02*
X106221905Y-100758438D01*
X106221905Y-100758438D02*
X106317143Y-100710819D01*
X106317143Y-100710819D02*
X106555238Y-100710819D01*
X106555238Y-100710819D02*
X106698095Y-100758438D01*
X107031429Y-100710819D02*
X107269524Y-101710819D01*
X107269524Y-101710819D02*
X107460000Y-100996533D01*
X107460000Y-100996533D02*
X107650476Y-101710819D01*
X107650476Y-101710819D02*
X107888572Y-100710819D01*
X108698095Y-101044152D02*
X108698095Y-101710819D01*
X108460000Y-100663200D02*
X108221905Y-101377485D01*
X108221905Y-101377485D02*
X108840952Y-101377485D01*
X125176667Y-101663200D02*
X125319524Y-101710819D01*
X125319524Y-101710819D02*
X125557619Y-101710819D01*
X125557619Y-101710819D02*
X125652857Y-101663200D01*
X125652857Y-101663200D02*
X125700476Y-101615580D01*
X125700476Y-101615580D02*
X125748095Y-101520342D01*
X125748095Y-101520342D02*
X125748095Y-101425104D01*
X125748095Y-101425104D02*
X125700476Y-101329866D01*
X125700476Y-101329866D02*
X125652857Y-101282247D01*
X125652857Y-101282247D02*
X125557619Y-101234628D01*
X125557619Y-101234628D02*
X125367143Y-101187009D01*
X125367143Y-101187009D02*
X125271905Y-101139390D01*
X125271905Y-101139390D02*
X125224286Y-101091771D01*
X125224286Y-101091771D02*
X125176667Y-100996533D01*
X125176667Y-100996533D02*
X125176667Y-100901295D01*
X125176667Y-100901295D02*
X125224286Y-100806057D01*
X125224286Y-100806057D02*
X125271905Y-100758438D01*
X125271905Y-100758438D02*
X125367143Y-100710819D01*
X125367143Y-100710819D02*
X125605238Y-100710819D01*
X125605238Y-100710819D02*
X125748095Y-100758438D01*
X126081429Y-100710819D02*
X126319524Y-101710819D01*
X126319524Y-101710819D02*
X126510000Y-100996533D01*
X126510000Y-100996533D02*
X126700476Y-101710819D01*
X126700476Y-101710819D02*
X126938572Y-100710819D01*
X127795714Y-100710819D02*
X127319524Y-100710819D01*
X127319524Y-100710819D02*
X127271905Y-101187009D01*
X127271905Y-101187009D02*
X127319524Y-101139390D01*
X127319524Y-101139390D02*
X127414762Y-101091771D01*
X127414762Y-101091771D02*
X127652857Y-101091771D01*
X127652857Y-101091771D02*
X127748095Y-101139390D01*
X127748095Y-101139390D02*
X127795714Y-101187009D01*
X127795714Y-101187009D02*
X127843333Y-101282247D01*
X127843333Y-101282247D02*
X127843333Y-101520342D01*
X127843333Y-101520342D02*
X127795714Y-101615580D01*
X127795714Y-101615580D02*
X127748095Y-101663200D01*
X127748095Y-101663200D02*
X127652857Y-101710819D01*
X127652857Y-101710819D02*
X127414762Y-101710819D01*
X127414762Y-101710819D02*
X127319524Y-101663200D01*
X127319524Y-101663200D02*
X127271905Y-101615580D01*
X125176667Y-82613200D02*
X125319524Y-82660819D01*
X125319524Y-82660819D02*
X125557619Y-82660819D01*
X125557619Y-82660819D02*
X125652857Y-82613200D01*
X125652857Y-82613200D02*
X125700476Y-82565580D01*
X125700476Y-82565580D02*
X125748095Y-82470342D01*
X125748095Y-82470342D02*
X125748095Y-82375104D01*
X125748095Y-82375104D02*
X125700476Y-82279866D01*
X125700476Y-82279866D02*
X125652857Y-82232247D01*
X125652857Y-82232247D02*
X125557619Y-82184628D01*
X125557619Y-82184628D02*
X125367143Y-82137009D01*
X125367143Y-82137009D02*
X125271905Y-82089390D01*
X125271905Y-82089390D02*
X125224286Y-82041771D01*
X125224286Y-82041771D02*
X125176667Y-81946533D01*
X125176667Y-81946533D02*
X125176667Y-81851295D01*
X125176667Y-81851295D02*
X125224286Y-81756057D01*
X125224286Y-81756057D02*
X125271905Y-81708438D01*
X125271905Y-81708438D02*
X125367143Y-81660819D01*
X125367143Y-81660819D02*
X125605238Y-81660819D01*
X125605238Y-81660819D02*
X125748095Y-81708438D01*
X126081429Y-81660819D02*
X126319524Y-82660819D01*
X126319524Y-82660819D02*
X126510000Y-81946533D01*
X126510000Y-81946533D02*
X126700476Y-82660819D01*
X126700476Y-82660819D02*
X126938572Y-81660819D01*
X127271905Y-81756057D02*
X127319524Y-81708438D01*
X127319524Y-81708438D02*
X127414762Y-81660819D01*
X127414762Y-81660819D02*
X127652857Y-81660819D01*
X127652857Y-81660819D02*
X127748095Y-81708438D01*
X127748095Y-81708438D02*
X127795714Y-81756057D01*
X127795714Y-81756057D02*
X127843333Y-81851295D01*
X127843333Y-81851295D02*
X127843333Y-81946533D01*
X127843333Y-81946533D02*
X127795714Y-82089390D01*
X127795714Y-82089390D02*
X127224286Y-82660819D01*
X127224286Y-82660819D02*
X127843333Y-82660819D01*
X106126667Y-82613200D02*
X106269524Y-82660819D01*
X106269524Y-82660819D02*
X106507619Y-82660819D01*
X106507619Y-82660819D02*
X106602857Y-82613200D01*
X106602857Y-82613200D02*
X106650476Y-82565580D01*
X106650476Y-82565580D02*
X106698095Y-82470342D01*
X106698095Y-82470342D02*
X106698095Y-82375104D01*
X106698095Y-82375104D02*
X106650476Y-82279866D01*
X106650476Y-82279866D02*
X106602857Y-82232247D01*
X106602857Y-82232247D02*
X106507619Y-82184628D01*
X106507619Y-82184628D02*
X106317143Y-82137009D01*
X106317143Y-82137009D02*
X106221905Y-82089390D01*
X106221905Y-82089390D02*
X106174286Y-82041771D01*
X106174286Y-82041771D02*
X106126667Y-81946533D01*
X106126667Y-81946533D02*
X106126667Y-81851295D01*
X106126667Y-81851295D02*
X106174286Y-81756057D01*
X106174286Y-81756057D02*
X106221905Y-81708438D01*
X106221905Y-81708438D02*
X106317143Y-81660819D01*
X106317143Y-81660819D02*
X106555238Y-81660819D01*
X106555238Y-81660819D02*
X106698095Y-81708438D01*
X107031429Y-81660819D02*
X107269524Y-82660819D01*
X107269524Y-82660819D02*
X107460000Y-81946533D01*
X107460000Y-81946533D02*
X107650476Y-82660819D01*
X107650476Y-82660819D02*
X107888572Y-81660819D01*
X108793333Y-82660819D02*
X108221905Y-82660819D01*
X108507619Y-82660819D02*
X108507619Y-81660819D01*
X108507619Y-81660819D02*
X108412381Y-81803676D01*
X108412381Y-81803676D02*
X108317143Y-81898914D01*
X108317143Y-81898914D02*
X108221905Y-81946533D01*
X144226667Y-82613200D02*
X144369524Y-82660819D01*
X144369524Y-82660819D02*
X144607619Y-82660819D01*
X144607619Y-82660819D02*
X144702857Y-82613200D01*
X144702857Y-82613200D02*
X144750476Y-82565580D01*
X144750476Y-82565580D02*
X144798095Y-82470342D01*
X144798095Y-82470342D02*
X144798095Y-82375104D01*
X144798095Y-82375104D02*
X144750476Y-82279866D01*
X144750476Y-82279866D02*
X144702857Y-82232247D01*
X144702857Y-82232247D02*
X144607619Y-82184628D01*
X144607619Y-82184628D02*
X144417143Y-82137009D01*
X144417143Y-82137009D02*
X144321905Y-82089390D01*
X144321905Y-82089390D02*
X144274286Y-82041771D01*
X144274286Y-82041771D02*
X144226667Y-81946533D01*
X144226667Y-81946533D02*
X144226667Y-81851295D01*
X144226667Y-81851295D02*
X144274286Y-81756057D01*
X144274286Y-81756057D02*
X144321905Y-81708438D01*
X144321905Y-81708438D02*
X144417143Y-81660819D01*
X144417143Y-81660819D02*
X144655238Y-81660819D01*
X144655238Y-81660819D02*
X144798095Y-81708438D01*
X145131429Y-81660819D02*
X145369524Y-82660819D01*
X145369524Y-82660819D02*
X145560000Y-81946533D01*
X145560000Y-81946533D02*
X145750476Y-82660819D01*
X145750476Y-82660819D02*
X145988572Y-81660819D01*
X146274286Y-81660819D02*
X146893333Y-81660819D01*
X146893333Y-81660819D02*
X146560000Y-82041771D01*
X146560000Y-82041771D02*
X146702857Y-82041771D01*
X146702857Y-82041771D02*
X146798095Y-82089390D01*
X146798095Y-82089390D02*
X146845714Y-82137009D01*
X146845714Y-82137009D02*
X146893333Y-82232247D01*
X146893333Y-82232247D02*
X146893333Y-82470342D01*
X146893333Y-82470342D02*
X146845714Y-82565580D01*
X146845714Y-82565580D02*
X146798095Y-82613200D01*
X146798095Y-82613200D02*
X146702857Y-82660819D01*
X146702857Y-82660819D02*
X146417143Y-82660819D01*
X146417143Y-82660819D02*
X146321905Y-82613200D01*
X146321905Y-82613200D02*
X146274286Y-82565580D01*
X106126667Y-120713200D02*
X106269524Y-120760819D01*
X106269524Y-120760819D02*
X106507619Y-120760819D01*
X106507619Y-120760819D02*
X106602857Y-120713200D01*
X106602857Y-120713200D02*
X106650476Y-120665580D01*
X106650476Y-120665580D02*
X106698095Y-120570342D01*
X106698095Y-120570342D02*
X106698095Y-120475104D01*
X106698095Y-120475104D02*
X106650476Y-120379866D01*
X106650476Y-120379866D02*
X106602857Y-120332247D01*
X106602857Y-120332247D02*
X106507619Y-120284628D01*
X106507619Y-120284628D02*
X106317143Y-120237009D01*
X106317143Y-120237009D02*
X106221905Y-120189390D01*
X106221905Y-120189390D02*
X106174286Y-120141771D01*
X106174286Y-120141771D02*
X106126667Y-120046533D01*
X106126667Y-120046533D02*
X106126667Y-119951295D01*
X106126667Y-119951295D02*
X106174286Y-119856057D01*
X106174286Y-119856057D02*
X106221905Y-119808438D01*
X106221905Y-119808438D02*
X106317143Y-119760819D01*
X106317143Y-119760819D02*
X106555238Y-119760819D01*
X106555238Y-119760819D02*
X106698095Y-119808438D01*
X107031429Y-119760819D02*
X107269524Y-120760819D01*
X107269524Y-120760819D02*
X107460000Y-120046533D01*
X107460000Y-120046533D02*
X107650476Y-120760819D01*
X107650476Y-120760819D02*
X107888572Y-119760819D01*
X108174286Y-119760819D02*
X108840952Y-119760819D01*
X108840952Y-119760819D02*
X108412381Y-120760819D01*
X144226667Y-101663200D02*
X144369524Y-101710819D01*
X144369524Y-101710819D02*
X144607619Y-101710819D01*
X144607619Y-101710819D02*
X144702857Y-101663200D01*
X144702857Y-101663200D02*
X144750476Y-101615580D01*
X144750476Y-101615580D02*
X144798095Y-101520342D01*
X144798095Y-101520342D02*
X144798095Y-101425104D01*
X144798095Y-101425104D02*
X144750476Y-101329866D01*
X144750476Y-101329866D02*
X144702857Y-101282247D01*
X144702857Y-101282247D02*
X144607619Y-101234628D01*
X144607619Y-101234628D02*
X144417143Y-101187009D01*
X144417143Y-101187009D02*
X144321905Y-101139390D01*
X144321905Y-101139390D02*
X144274286Y-101091771D01*
X144274286Y-101091771D02*
X144226667Y-100996533D01*
X144226667Y-100996533D02*
X144226667Y-100901295D01*
X144226667Y-100901295D02*
X144274286Y-100806057D01*
X144274286Y-100806057D02*
X144321905Y-100758438D01*
X144321905Y-100758438D02*
X144417143Y-100710819D01*
X144417143Y-100710819D02*
X144655238Y-100710819D01*
X144655238Y-100710819D02*
X144798095Y-100758438D01*
X145131429Y-100710819D02*
X145369524Y-101710819D01*
X145369524Y-101710819D02*
X145560000Y-100996533D01*
X145560000Y-100996533D02*
X145750476Y-101710819D01*
X145750476Y-101710819D02*
X145988572Y-100710819D01*
X146798095Y-100710819D02*
X146607619Y-100710819D01*
X146607619Y-100710819D02*
X146512381Y-100758438D01*
X146512381Y-100758438D02*
X146464762Y-100806057D01*
X146464762Y-100806057D02*
X146369524Y-100948914D01*
X146369524Y-100948914D02*
X146321905Y-101139390D01*
X146321905Y-101139390D02*
X146321905Y-101520342D01*
X146321905Y-101520342D02*
X146369524Y-101615580D01*
X146369524Y-101615580D02*
X146417143Y-101663200D01*
X146417143Y-101663200D02*
X146512381Y-101710819D01*
X146512381Y-101710819D02*
X146702857Y-101710819D01*
X146702857Y-101710819D02*
X146798095Y-101663200D01*
X146798095Y-101663200D02*
X146845714Y-101615580D01*
X146845714Y-101615580D02*
X146893333Y-101520342D01*
X146893333Y-101520342D02*
X146893333Y-101282247D01*
X146893333Y-101282247D02*
X146845714Y-101187009D01*
X146845714Y-101187009D02*
X146798095Y-101139390D01*
X146798095Y-101139390D02*
X146702857Y-101091771D01*
X146702857Y-101091771D02*
X146512381Y-101091771D01*
X146512381Y-101091771D02*
X146417143Y-101139390D01*
X146417143Y-101139390D02*
X146369524Y-101187009D01*
X146369524Y-101187009D02*
X146321905Y-101282247D01*
X125176667Y-120713200D02*
X125319524Y-120760819D01*
X125319524Y-120760819D02*
X125557619Y-120760819D01*
X125557619Y-120760819D02*
X125652857Y-120713200D01*
X125652857Y-120713200D02*
X125700476Y-120665580D01*
X125700476Y-120665580D02*
X125748095Y-120570342D01*
X125748095Y-120570342D02*
X125748095Y-120475104D01*
X125748095Y-120475104D02*
X125700476Y-120379866D01*
X125700476Y-120379866D02*
X125652857Y-120332247D01*
X125652857Y-120332247D02*
X125557619Y-120284628D01*
X125557619Y-120284628D02*
X125367143Y-120237009D01*
X125367143Y-120237009D02*
X125271905Y-120189390D01*
X125271905Y-120189390D02*
X125224286Y-120141771D01*
X125224286Y-120141771D02*
X125176667Y-120046533D01*
X125176667Y-120046533D02*
X125176667Y-119951295D01*
X125176667Y-119951295D02*
X125224286Y-119856057D01*
X125224286Y-119856057D02*
X125271905Y-119808438D01*
X125271905Y-119808438D02*
X125367143Y-119760819D01*
X125367143Y-119760819D02*
X125605238Y-119760819D01*
X125605238Y-119760819D02*
X125748095Y-119808438D01*
X126081429Y-119760819D02*
X126319524Y-120760819D01*
X126319524Y-120760819D02*
X126510000Y-120046533D01*
X126510000Y-120046533D02*
X126700476Y-120760819D01*
X126700476Y-120760819D02*
X126938572Y-119760819D01*
X127462381Y-120189390D02*
X127367143Y-120141771D01*
X127367143Y-120141771D02*
X127319524Y-120094152D01*
X127319524Y-120094152D02*
X127271905Y-119998914D01*
X127271905Y-119998914D02*
X127271905Y-119951295D01*
X127271905Y-119951295D02*
X127319524Y-119856057D01*
X127319524Y-119856057D02*
X127367143Y-119808438D01*
X127367143Y-119808438D02*
X127462381Y-119760819D01*
X127462381Y-119760819D02*
X127652857Y-119760819D01*
X127652857Y-119760819D02*
X127748095Y-119808438D01*
X127748095Y-119808438D02*
X127795714Y-119856057D01*
X127795714Y-119856057D02*
X127843333Y-119951295D01*
X127843333Y-119951295D02*
X127843333Y-119998914D01*
X127843333Y-119998914D02*
X127795714Y-120094152D01*
X127795714Y-120094152D02*
X127748095Y-120141771D01*
X127748095Y-120141771D02*
X127652857Y-120189390D01*
X127652857Y-120189390D02*
X127462381Y-120189390D01*
X127462381Y-120189390D02*
X127367143Y-120237009D01*
X127367143Y-120237009D02*
X127319524Y-120284628D01*
X127319524Y-120284628D02*
X127271905Y-120379866D01*
X127271905Y-120379866D02*
X127271905Y-120570342D01*
X127271905Y-120570342D02*
X127319524Y-120665580D01*
X127319524Y-120665580D02*
X127367143Y-120713200D01*
X127367143Y-120713200D02*
X127462381Y-120760819D01*
X127462381Y-120760819D02*
X127652857Y-120760819D01*
X127652857Y-120760819D02*
X127748095Y-120713200D01*
X127748095Y-120713200D02*
X127795714Y-120665580D01*
X127795714Y-120665580D02*
X127843333Y-120570342D01*
X127843333Y-120570342D02*
X127843333Y-120379866D01*
X127843333Y-120379866D02*
X127795714Y-120284628D01*
X127795714Y-120284628D02*
X127748095Y-120237009D01*
X127748095Y-120237009D02*
X127652857Y-120189390D01*
X144226667Y-120713200D02*
X144369524Y-120760819D01*
X144369524Y-120760819D02*
X144607619Y-120760819D01*
X144607619Y-120760819D02*
X144702857Y-120713200D01*
X144702857Y-120713200D02*
X144750476Y-120665580D01*
X144750476Y-120665580D02*
X144798095Y-120570342D01*
X144798095Y-120570342D02*
X144798095Y-120475104D01*
X144798095Y-120475104D02*
X144750476Y-120379866D01*
X144750476Y-120379866D02*
X144702857Y-120332247D01*
X144702857Y-120332247D02*
X144607619Y-120284628D01*
X144607619Y-120284628D02*
X144417143Y-120237009D01*
X144417143Y-120237009D02*
X144321905Y-120189390D01*
X144321905Y-120189390D02*
X144274286Y-120141771D01*
X144274286Y-120141771D02*
X144226667Y-120046533D01*
X144226667Y-120046533D02*
X144226667Y-119951295D01*
X144226667Y-119951295D02*
X144274286Y-119856057D01*
X144274286Y-119856057D02*
X144321905Y-119808438D01*
X144321905Y-119808438D02*
X144417143Y-119760819D01*
X144417143Y-119760819D02*
X144655238Y-119760819D01*
X144655238Y-119760819D02*
X144798095Y-119808438D01*
X145131429Y-119760819D02*
X145369524Y-120760819D01*
X145369524Y-120760819D02*
X145560000Y-120046533D01*
X145560000Y-120046533D02*
X145750476Y-120760819D01*
X145750476Y-120760819D02*
X145988572Y-119760819D01*
X146417143Y-120760819D02*
X146607619Y-120760819D01*
X146607619Y-120760819D02*
X146702857Y-120713200D01*
X146702857Y-120713200D02*
X146750476Y-120665580D01*
X146750476Y-120665580D02*
X146845714Y-120522723D01*
X146845714Y-120522723D02*
X146893333Y-120332247D01*
X146893333Y-120332247D02*
X146893333Y-119951295D01*
X146893333Y-119951295D02*
X146845714Y-119856057D01*
X146845714Y-119856057D02*
X146798095Y-119808438D01*
X146798095Y-119808438D02*
X146702857Y-119760819D01*
X146702857Y-119760819D02*
X146512381Y-119760819D01*
X146512381Y-119760819D02*
X146417143Y-119808438D01*
X146417143Y-119808438D02*
X146369524Y-119856057D01*
X146369524Y-119856057D02*
X146321905Y-119951295D01*
X146321905Y-119951295D02*
X146321905Y-120189390D01*
X146321905Y-120189390D02*
X146369524Y-120284628D01*
X146369524Y-120284628D02*
X146417143Y-120332247D01*
X146417143Y-120332247D02*
X146512381Y-120379866D01*
X146512381Y-120379866D02*
X146702857Y-120379866D01*
X146702857Y-120379866D02*
X146798095Y-120332247D01*
X146798095Y-120332247D02*
X146845714Y-120284628D01*
X146845714Y-120284628D02*
X146893333Y-120189390D01*
X156054819Y-70894594D02*
X155054819Y-70894594D01*
X155054819Y-70894594D02*
X155054819Y-70656499D01*
X155054819Y-70656499D02*
X155102438Y-70513642D01*
X155102438Y-70513642D02*
X155197676Y-70418404D01*
X155197676Y-70418404D02*
X155292914Y-70370785D01*
X155292914Y-70370785D02*
X155483390Y-70323166D01*
X155483390Y-70323166D02*
X155626247Y-70323166D01*
X155626247Y-70323166D02*
X155816723Y-70370785D01*
X155816723Y-70370785D02*
X155911961Y-70418404D01*
X155911961Y-70418404D02*
X156007200Y-70513642D01*
X156007200Y-70513642D02*
X156054819Y-70656499D01*
X156054819Y-70656499D02*
X156054819Y-70894594D01*
X156054819Y-69370785D02*
X156054819Y-69942213D01*
X156054819Y-69656499D02*
X155054819Y-69656499D01*
X155054819Y-69656499D02*
X155197676Y-69751737D01*
X155197676Y-69751737D02*
X155292914Y-69846975D01*
X155292914Y-69846975D02*
X155340533Y-69942213D01*
X122600390Y-74447928D02*
X122562295Y-74519357D01*
X122562295Y-74519357D02*
X122562295Y-74626499D01*
X122562295Y-74626499D02*
X122600390Y-74733642D01*
X122600390Y-74733642D02*
X122676580Y-74805071D01*
X122676580Y-74805071D02*
X122752771Y-74840785D01*
X122752771Y-74840785D02*
X122905152Y-74876499D01*
X122905152Y-74876499D02*
X123019438Y-74876499D01*
X123019438Y-74876499D02*
X123171819Y-74840785D01*
X123171819Y-74840785D02*
X123248009Y-74805071D01*
X123248009Y-74805071D02*
X123324200Y-74733642D01*
X123324200Y-74733642D02*
X123362295Y-74626499D01*
X123362295Y-74626499D02*
X123362295Y-74555071D01*
X123362295Y-74555071D02*
X123324200Y-74447928D01*
X123324200Y-74447928D02*
X123286104Y-74412214D01*
X123286104Y-74412214D02*
X123019438Y-74412214D01*
X123019438Y-74412214D02*
X123019438Y-74555071D01*
X123362295Y-74090785D02*
X122562295Y-74090785D01*
X122562295Y-74090785D02*
X123362295Y-73662214D01*
X123362295Y-73662214D02*
X122562295Y-73662214D01*
X123362295Y-73305071D02*
X122562295Y-73305071D01*
X122562295Y-73305071D02*
X122562295Y-73126500D01*
X122562295Y-73126500D02*
X122600390Y-73019357D01*
X122600390Y-73019357D02*
X122676580Y-72947928D01*
X122676580Y-72947928D02*
X122752771Y-72912214D01*
X122752771Y-72912214D02*
X122905152Y-72876500D01*
X122905152Y-72876500D02*
X123019438Y-72876500D01*
X123019438Y-72876500D02*
X123171819Y-72912214D01*
X123171819Y-72912214D02*
X123248009Y-72947928D01*
X123248009Y-72947928D02*
X123324200Y-73019357D01*
X123324200Y-73019357D02*
X123362295Y-73126500D01*
X123362295Y-73126500D02*
X123362295Y-73305071D01*
X123324200Y-69689356D02*
X123362295Y-69582214D01*
X123362295Y-69582214D02*
X123362295Y-69403642D01*
X123362295Y-69403642D02*
X123324200Y-69332214D01*
X123324200Y-69332214D02*
X123286104Y-69296499D01*
X123286104Y-69296499D02*
X123209914Y-69260785D01*
X123209914Y-69260785D02*
X123133723Y-69260785D01*
X123133723Y-69260785D02*
X123057533Y-69296499D01*
X123057533Y-69296499D02*
X123019438Y-69332214D01*
X123019438Y-69332214D02*
X122981342Y-69403642D01*
X122981342Y-69403642D02*
X122943247Y-69546499D01*
X122943247Y-69546499D02*
X122905152Y-69617928D01*
X122905152Y-69617928D02*
X122867057Y-69653642D01*
X122867057Y-69653642D02*
X122790866Y-69689356D01*
X122790866Y-69689356D02*
X122714676Y-69689356D01*
X122714676Y-69689356D02*
X122638485Y-69653642D01*
X122638485Y-69653642D02*
X122600390Y-69617928D01*
X122600390Y-69617928D02*
X122562295Y-69546499D01*
X122562295Y-69546499D02*
X122562295Y-69367928D01*
X122562295Y-69367928D02*
X122600390Y-69260785D01*
X123286104Y-68510785D02*
X123324200Y-68546499D01*
X123324200Y-68546499D02*
X123362295Y-68653642D01*
X123362295Y-68653642D02*
X123362295Y-68725070D01*
X123362295Y-68725070D02*
X123324200Y-68832213D01*
X123324200Y-68832213D02*
X123248009Y-68903642D01*
X123248009Y-68903642D02*
X123171819Y-68939356D01*
X123171819Y-68939356D02*
X123019438Y-68975070D01*
X123019438Y-68975070D02*
X122905152Y-68975070D01*
X122905152Y-68975070D02*
X122752771Y-68939356D01*
X122752771Y-68939356D02*
X122676580Y-68903642D01*
X122676580Y-68903642D02*
X122600390Y-68832213D01*
X122600390Y-68832213D02*
X122562295Y-68725070D01*
X122562295Y-68725070D02*
X122562295Y-68653642D01*
X122562295Y-68653642D02*
X122600390Y-68546499D01*
X122600390Y-68546499D02*
X122638485Y-68510785D01*
X123362295Y-67832213D02*
X123362295Y-68189356D01*
X123362295Y-68189356D02*
X122562295Y-68189356D01*
X122562295Y-72336499D02*
X123362295Y-72086499D01*
X123362295Y-72086499D02*
X122562295Y-71836499D01*
X123286104Y-71157928D02*
X123324200Y-71193642D01*
X123324200Y-71193642D02*
X123362295Y-71300785D01*
X123362295Y-71300785D02*
X123362295Y-71372213D01*
X123362295Y-71372213D02*
X123324200Y-71479356D01*
X123324200Y-71479356D02*
X123248009Y-71550785D01*
X123248009Y-71550785D02*
X123171819Y-71586499D01*
X123171819Y-71586499D02*
X123019438Y-71622213D01*
X123019438Y-71622213D02*
X122905152Y-71622213D01*
X122905152Y-71622213D02*
X122752771Y-71586499D01*
X122752771Y-71586499D02*
X122676580Y-71550785D01*
X122676580Y-71550785D02*
X122600390Y-71479356D01*
X122600390Y-71479356D02*
X122562295Y-71372213D01*
X122562295Y-71372213D02*
X122562295Y-71300785D01*
X122562295Y-71300785D02*
X122600390Y-71193642D01*
X122600390Y-71193642D02*
X122638485Y-71157928D01*
X123286104Y-70407928D02*
X123324200Y-70443642D01*
X123324200Y-70443642D02*
X123362295Y-70550785D01*
X123362295Y-70550785D02*
X123362295Y-70622213D01*
X123362295Y-70622213D02*
X123324200Y-70729356D01*
X123324200Y-70729356D02*
X123248009Y-70800785D01*
X123248009Y-70800785D02*
X123171819Y-70836499D01*
X123171819Y-70836499D02*
X123019438Y-70872213D01*
X123019438Y-70872213D02*
X122905152Y-70872213D01*
X122905152Y-70872213D02*
X122752771Y-70836499D01*
X122752771Y-70836499D02*
X122676580Y-70800785D01*
X122676580Y-70800785D02*
X122600390Y-70729356D01*
X122600390Y-70729356D02*
X122562295Y-70622213D01*
X122562295Y-70622213D02*
X122562295Y-70550785D01*
X122562295Y-70550785D02*
X122600390Y-70443642D01*
X122600390Y-70443642D02*
X122638485Y-70407928D01*
X123324200Y-67167213D02*
X123362295Y-67060071D01*
X123362295Y-67060071D02*
X123362295Y-66881499D01*
X123362295Y-66881499D02*
X123324200Y-66810071D01*
X123324200Y-66810071D02*
X123286104Y-66774356D01*
X123286104Y-66774356D02*
X123209914Y-66738642D01*
X123209914Y-66738642D02*
X123133723Y-66738642D01*
X123133723Y-66738642D02*
X123057533Y-66774356D01*
X123057533Y-66774356D02*
X123019438Y-66810071D01*
X123019438Y-66810071D02*
X122981342Y-66881499D01*
X122981342Y-66881499D02*
X122943247Y-67024356D01*
X122943247Y-67024356D02*
X122905152Y-67095785D01*
X122905152Y-67095785D02*
X122867057Y-67131499D01*
X122867057Y-67131499D02*
X122790866Y-67167213D01*
X122790866Y-67167213D02*
X122714676Y-67167213D01*
X122714676Y-67167213D02*
X122638485Y-67131499D01*
X122638485Y-67131499D02*
X122600390Y-67095785D01*
X122600390Y-67095785D02*
X122562295Y-67024356D01*
X122562295Y-67024356D02*
X122562295Y-66845785D01*
X122562295Y-66845785D02*
X122600390Y-66738642D01*
X123362295Y-66417213D02*
X122562295Y-66417213D01*
X122562295Y-66417213D02*
X122562295Y-66238642D01*
X122562295Y-66238642D02*
X122600390Y-66131499D01*
X122600390Y-66131499D02*
X122676580Y-66060070D01*
X122676580Y-66060070D02*
X122752771Y-66024356D01*
X122752771Y-66024356D02*
X122905152Y-65988642D01*
X122905152Y-65988642D02*
X123019438Y-65988642D01*
X123019438Y-65988642D02*
X123171819Y-66024356D01*
X123171819Y-66024356D02*
X123248009Y-66060070D01*
X123248009Y-66060070D02*
X123324200Y-66131499D01*
X123324200Y-66131499D02*
X123362295Y-66238642D01*
X123362295Y-66238642D02*
X123362295Y-66417213D01*
X123133723Y-65702927D02*
X123133723Y-65345785D01*
X123362295Y-65774356D02*
X122562295Y-65524356D01*
X122562295Y-65524356D02*
X123362295Y-65274356D01*
X134571428Y-69521319D02*
X134761904Y-69521319D01*
X134761904Y-69521319D02*
X134857142Y-69568938D01*
X134857142Y-69568938D02*
X134952380Y-69664176D01*
X134952380Y-69664176D02*
X134999999Y-69854652D01*
X134999999Y-69854652D02*
X134999999Y-70187985D01*
X134999999Y-70187985D02*
X134952380Y-70378461D01*
X134952380Y-70378461D02*
X134857142Y-70473700D01*
X134857142Y-70473700D02*
X134761904Y-70521319D01*
X134761904Y-70521319D02*
X134571428Y-70521319D01*
X134571428Y-70521319D02*
X134476190Y-70473700D01*
X134476190Y-70473700D02*
X134380952Y-70378461D01*
X134380952Y-70378461D02*
X134333333Y-70187985D01*
X134333333Y-70187985D02*
X134333333Y-69854652D01*
X134333333Y-69854652D02*
X134380952Y-69664176D01*
X134380952Y-69664176D02*
X134476190Y-69568938D01*
X134476190Y-69568938D02*
X134571428Y-69521319D01*
X135904761Y-70521319D02*
X135428571Y-70521319D01*
X135428571Y-70521319D02*
X135428571Y-69521319D01*
X136238095Y-69997509D02*
X136571428Y-69997509D01*
X136714285Y-70521319D02*
X136238095Y-70521319D01*
X136238095Y-70521319D02*
X136238095Y-69521319D01*
X136238095Y-69521319D02*
X136714285Y-69521319D01*
X137142857Y-70521319D02*
X137142857Y-69521319D01*
X137142857Y-69521319D02*
X137380952Y-69521319D01*
X137380952Y-69521319D02*
X137523809Y-69568938D01*
X137523809Y-69568938D02*
X137619047Y-69664176D01*
X137619047Y-69664176D02*
X137666666Y-69759414D01*
X137666666Y-69759414D02*
X137714285Y-69949890D01*
X137714285Y-69949890D02*
X137714285Y-70092747D01*
X137714285Y-70092747D02*
X137666666Y-70283223D01*
X137666666Y-70283223D02*
X137619047Y-70378461D01*
X137619047Y-70378461D02*
X137523809Y-70473700D01*
X137523809Y-70473700D02*
X137380952Y-70521319D01*
X137380952Y-70521319D02*
X137142857Y-70521319D01*
X138904762Y-70521319D02*
X138904762Y-69521319D01*
X138904762Y-69521319D02*
X139285714Y-69521319D01*
X139285714Y-69521319D02*
X139380952Y-69568938D01*
X139380952Y-69568938D02*
X139428571Y-69616557D01*
X139428571Y-69616557D02*
X139476190Y-69711795D01*
X139476190Y-69711795D02*
X139476190Y-69854652D01*
X139476190Y-69854652D02*
X139428571Y-69949890D01*
X139428571Y-69949890D02*
X139380952Y-69997509D01*
X139380952Y-69997509D02*
X139285714Y-70045128D01*
X139285714Y-70045128D02*
X138904762Y-70045128D01*
X140333333Y-70521319D02*
X140333333Y-69997509D01*
X140333333Y-69997509D02*
X140285714Y-69902271D01*
X140285714Y-69902271D02*
X140190476Y-69854652D01*
X140190476Y-69854652D02*
X140000000Y-69854652D01*
X140000000Y-69854652D02*
X139904762Y-69902271D01*
X140333333Y-70473700D02*
X140238095Y-70521319D01*
X140238095Y-70521319D02*
X140000000Y-70521319D01*
X140000000Y-70521319D02*
X139904762Y-70473700D01*
X139904762Y-70473700D02*
X139857143Y-70378461D01*
X139857143Y-70378461D02*
X139857143Y-70283223D01*
X139857143Y-70283223D02*
X139904762Y-70187985D01*
X139904762Y-70187985D02*
X140000000Y-70140366D01*
X140000000Y-70140366D02*
X140238095Y-70140366D01*
X140238095Y-70140366D02*
X140333333Y-70092747D01*
X140809524Y-69854652D02*
X140809524Y-70521319D01*
X140809524Y-69949890D02*
X140857143Y-69902271D01*
X140857143Y-69902271D02*
X140952381Y-69854652D01*
X140952381Y-69854652D02*
X141095238Y-69854652D01*
X141095238Y-69854652D02*
X141190476Y-69902271D01*
X141190476Y-69902271D02*
X141238095Y-69997509D01*
X141238095Y-69997509D02*
X141238095Y-70521319D01*
X142095238Y-70473700D02*
X142000000Y-70521319D01*
X142000000Y-70521319D02*
X141809524Y-70521319D01*
X141809524Y-70521319D02*
X141714286Y-70473700D01*
X141714286Y-70473700D02*
X141666667Y-70378461D01*
X141666667Y-70378461D02*
X141666667Y-69997509D01*
X141666667Y-69997509D02*
X141714286Y-69902271D01*
X141714286Y-69902271D02*
X141809524Y-69854652D01*
X141809524Y-69854652D02*
X142000000Y-69854652D01*
X142000000Y-69854652D02*
X142095238Y-69902271D01*
X142095238Y-69902271D02*
X142142857Y-69997509D01*
X142142857Y-69997509D02*
X142142857Y-70092747D01*
X142142857Y-70092747D02*
X141666667Y-70187985D01*
X142714286Y-70521319D02*
X142619048Y-70473700D01*
X142619048Y-70473700D02*
X142571429Y-70378461D01*
X142571429Y-70378461D02*
X142571429Y-69521319D01*
D13*
X98490000Y-78639000D02*
X98490000Y-61494000D01*
X100395000Y-80544000D02*
X114365000Y-80544000D01*
X102885000Y-59589000D02*
X102888728Y-58678728D01*
X103388728Y-58179000D02*
X111384000Y-58179000D01*
X111884000Y-58679000D02*
X111884000Y-59589000D01*
D14*
X114365000Y-59589000D02*
X100395000Y-59589000D01*
D13*
X114365000Y-59589000D02*
X100395000Y-59589000D01*
X116270000Y-78639000D02*
X116270000Y-61494000D01*
X98490000Y-61494000D02*
G75*
G02*
X100395000Y-59589000I1905001J-1D01*
G01*
X100395000Y-80544000D02*
G75*
G02*
X98490000Y-78639000I1J1905001D01*
G01*
X102888728Y-58678728D02*
G75*
G02*
X103388728Y-58179001I500018J-291D01*
G01*
X111384000Y-58179000D02*
G75*
G02*
X111884000Y-58679000I0J-500000D01*
G01*
X114365000Y-59589000D02*
G75*
G02*
X116270000Y-61494000I0J-1905000D01*
G01*
X116270000Y-78639000D02*
G75*
G02*
X114365000Y-80544000I-1905000J0D01*
G01*
D15*
X98682000Y-59830000D02*
G75*
G02*
X98178000Y-59830000I-252000J0D01*
G01*
X98178000Y-59830000D02*
G75*
G02*
X98682000Y-59830000I252000J0D01*
G01*
X99825000Y-60710000D02*
G75*
G02*
X99321000Y-60710000I-252000J0D01*
G01*
X99321000Y-60710000D02*
G75*
G02*
X99825000Y-60710000I252000J0D01*
G01*
D16*
X100475000Y-102145000D02*
X114445000Y-102145000D01*
X100475000Y-116115000D02*
X100475000Y-102145000D01*
X114445000Y-102145000D02*
X114445000Y-116115000D01*
X114445000Y-116115000D02*
X100475000Y-116115000D01*
X119525000Y-102145000D02*
X133495000Y-102145000D01*
X119525000Y-116115000D02*
X119525000Y-102145000D01*
X133495000Y-102145000D02*
X133495000Y-116115000D01*
X133495000Y-116115000D02*
X119525000Y-116115000D01*
X119525000Y-83095000D02*
X133495000Y-83095000D01*
X119525000Y-97065000D02*
X119525000Y-83095000D01*
X133495000Y-83095000D02*
X133495000Y-97065000D01*
X133495000Y-97065000D02*
X119525000Y-97065000D01*
X100475000Y-83095000D02*
X114445000Y-83095000D01*
X100475000Y-97065000D02*
X100475000Y-83095000D01*
X114445000Y-83095000D02*
X114445000Y-97065000D01*
X114445000Y-97065000D02*
X100475000Y-97065000D01*
X138575000Y-83095000D02*
X152545000Y-83095000D01*
X138575000Y-97065000D02*
X138575000Y-83095000D01*
X152545000Y-83095000D02*
X152545000Y-97065000D01*
X152545000Y-97065000D02*
X138575000Y-97065000D01*
X100475000Y-121195000D02*
X114445000Y-121195000D01*
X100475000Y-135165000D02*
X100475000Y-121195000D01*
X114445000Y-121195000D02*
X114445000Y-135165000D01*
X114445000Y-135165000D02*
X100475000Y-135165000D01*
X138575000Y-102145000D02*
X152545000Y-102145000D01*
X138575000Y-116115000D02*
X138575000Y-102145000D01*
X152545000Y-102145000D02*
X152545000Y-116115000D01*
X152545000Y-116115000D02*
X138575000Y-116115000D01*
X119525000Y-121195000D02*
X133495000Y-121195000D01*
X119525000Y-135165000D02*
X119525000Y-121195000D01*
X133495000Y-121195000D02*
X133495000Y-135165000D01*
X133495000Y-135165000D02*
X119525000Y-135165000D01*
X138575000Y-121195000D02*
X152545000Y-121195000D01*
X138575000Y-135165000D02*
X138575000Y-121195000D01*
X152545000Y-121195000D02*
X152545000Y-135165000D01*
X152545000Y-135165000D02*
X138575000Y-135165000D01*
D17*
X119500000Y-64066500D02*
X119500000Y-76066500D01*
X119500000Y-76066500D02*
X157500000Y-76066500D01*
X124500000Y-76066500D02*
X124500000Y-64066500D01*
X154000000Y-76066500D02*
X154000000Y-64066500D01*
X157500000Y-64066500D02*
X119500000Y-64066500D01*
X157500000Y-76066500D02*
X157500000Y-64066500D01*
%LPC*%
D18*
X98925000Y-62510000D03*
D19*
X99760000Y-62510000D03*
D18*
X98925000Y-65050000D03*
D19*
X99760000Y-65050000D03*
D18*
X98925000Y-67590000D03*
D19*
X99760000Y-67590000D03*
D18*
X98925000Y-70130000D03*
D19*
X99760000Y-70130000D03*
D18*
X98925000Y-72670000D03*
D19*
X99760000Y-72670000D03*
D18*
X98925000Y-75210000D03*
D19*
X99760000Y-75210000D03*
D18*
X98925000Y-77750000D03*
D19*
X99760000Y-77750000D03*
X115000000Y-77750000D03*
D20*
X115835000Y-77750000D03*
D19*
X115000000Y-75210000D03*
D20*
X115835000Y-75210000D03*
D19*
X115000000Y-72670000D03*
D20*
X115835000Y-72670000D03*
D19*
X115000000Y-70130000D03*
D20*
X115835000Y-70130000D03*
D19*
X115000000Y-67590000D03*
D20*
X115835000Y-67590000D03*
D19*
X115000000Y-65050000D03*
D20*
X115835000Y-65050000D03*
D19*
X115000000Y-62510000D03*
D20*
X115835000Y-62510000D03*
D21*
X102380000Y-109130000D03*
D22*
X107460000Y-109130000D03*
D21*
X112540000Y-109130000D03*
D23*
X110000000Y-104050000D03*
X103650000Y-106590000D03*
D21*
X121430000Y-109130000D03*
D22*
X126510000Y-109130000D03*
D21*
X131590000Y-109130000D03*
D23*
X129050000Y-104050000D03*
X122700000Y-106590000D03*
D21*
X121430000Y-90080000D03*
D22*
X126510000Y-90080000D03*
D21*
X131590000Y-90080000D03*
D23*
X129050000Y-85000000D03*
X122700000Y-87540000D03*
D21*
X102380000Y-90080000D03*
D22*
X107460000Y-90080000D03*
D21*
X112540000Y-90080000D03*
D23*
X110000000Y-85000000D03*
X103650000Y-87540000D03*
D21*
X140480000Y-90080000D03*
D22*
X145560000Y-90080000D03*
D21*
X150640000Y-90080000D03*
D23*
X148100000Y-85000000D03*
X141750000Y-87540000D03*
D21*
X102380000Y-128180000D03*
D22*
X107460000Y-128180000D03*
D21*
X112540000Y-128180000D03*
D23*
X110000000Y-123100000D03*
X103650000Y-125640000D03*
D21*
X140480000Y-109130000D03*
D22*
X145560000Y-109130000D03*
D21*
X150640000Y-109130000D03*
D23*
X148100000Y-104050000D03*
X141750000Y-106590000D03*
D21*
X121430000Y-128180000D03*
D22*
X126510000Y-128180000D03*
D21*
X131590000Y-128180000D03*
D23*
X129050000Y-123100000D03*
X122700000Y-125640000D03*
D21*
X140480000Y-128180000D03*
D22*
X145560000Y-128180000D03*
D21*
X150640000Y-128180000D03*
D23*
X148100000Y-123100000D03*
X141750000Y-125640000D03*
D24*
X121000000Y-73876500D03*
D25*
X121000000Y-71336500D03*
X121000000Y-68796500D03*
X121000000Y-66256500D03*
%LPD*%
M02*
