%TF.GenerationSoftware,KiCad,Pcbnew,9.0.6*%
%TF.CreationDate,2025-12-23T13:35:11+01:00*%
%TF.ProjectId,macropad,6d616372-6f70-4616-942e-6b696361645f,rev?*%
%TF.SameCoordinates,Original*%
%TF.FileFunction,Copper,L1,Top*%
%TF.FilePolarity,Positive*%
%FSLAX46Y46*%
G04 Gerber Fmt 4.6, Leading zero omitted, Abs format (unit mm)*
G04 Created by KiCad (PCBNEW 9.0.6) date 2025-12-23 13:35:11*
%MOMM*%
%LPD*%
G01*
G04 APERTURE LIST*
G04 Aperture macros list*
%AMRoundRect*
0 Rectangle with rounded corners*
0 $1 Rounding radius*
0 $2 $3 $4 $5 $6 $7 $8 $9 X,Y pos of 4 corners*
0 Add a 4 corners polygon primitive as box body*
4,1,4,$2,$3,$4,$5,$6,$7,$8,$9,$2,$3,0*
0 Add four circle primitives for the rounded corners*
1,1,$1+$1,$2,$3*
1,1,$1+$1,$4,$5*
1,1,$1+$1,$6,$7*
1,1,$1+$1,$8,$9*
0 Add four rect primitives between the rounded corners*
20,1,$1+$1,$2,$3,$4,$5,0*
20,1,$1+$1,$4,$5,$6,$7,0*
20,1,$1+$1,$6,$7,$8,$9,0*
20,1,$1+$1,$8,$9,$2,$3,0*%
G04 Aperture macros list end*
%TA.AperFunction,SMDPad,CuDef*%
%ADD10RoundRect,0.152400X1.063600X0.609600X-1.063600X0.609600X-1.063600X-0.609600X1.063600X-0.609600X0*%
%TD*%
%TA.AperFunction,ComponentPad*%
%ADD11C,1.524000*%
%TD*%
%TA.AperFunction,SMDPad,CuDef*%
%ADD12RoundRect,0.152400X-1.063600X-0.609600X1.063600X-0.609600X1.063600X0.609600X-1.063600X0.609600X0*%
%TD*%
%TA.AperFunction,ComponentPad*%
%ADD13C,2.200000*%
%TD*%
%TA.AperFunction,ComponentPad*%
%ADD14R,1.700000X1.700000*%
%TD*%
%TA.AperFunction,ComponentPad*%
%ADD15O,1.700000X1.700000*%
%TD*%
%TA.AperFunction,Conductor*%
%ADD16C,0.200000*%
%TD*%
G04 APERTURE END LIST*
D10*
X98925000Y-62510000D03*
D11*
X99760000Y-62510000D03*
D10*
X98925000Y-65050000D03*
D11*
X99760000Y-65050000D03*
D10*
X98925000Y-67590000D03*
D11*
X99760000Y-67590000D03*
D10*
X98925000Y-70130000D03*
D11*
X99760000Y-70130000D03*
D10*
X98925000Y-72670000D03*
D11*
X99760000Y-72670000D03*
D10*
X98925000Y-75210000D03*
D11*
X99760000Y-75210000D03*
D10*
X98925000Y-77750000D03*
D11*
X99760000Y-77750000D03*
X115000000Y-77750000D03*
D12*
X115835000Y-77750000D03*
D11*
X115000000Y-75210000D03*
D12*
X115835000Y-75210000D03*
D11*
X115000000Y-72670000D03*
D12*
X115835000Y-72670000D03*
D11*
X115000000Y-70130000D03*
D12*
X115835000Y-70130000D03*
D11*
X115000000Y-67590000D03*
D12*
X115835000Y-67590000D03*
D11*
X115000000Y-65050000D03*
D12*
X115835000Y-65050000D03*
D11*
X115000000Y-62510000D03*
D12*
X115835000Y-62510000D03*
D13*
X110000000Y-104050000D03*
X103650000Y-106590000D03*
X129050000Y-104050000D03*
X122700000Y-106590000D03*
X129050000Y-85000000D03*
X122700000Y-87540000D03*
X110000000Y-85000000D03*
X103650000Y-87540000D03*
X148100000Y-85000000D03*
X141750000Y-87540000D03*
X110000000Y-123100000D03*
X103650000Y-125640000D03*
X148100000Y-104050000D03*
X141750000Y-106590000D03*
X129050000Y-123100000D03*
X122700000Y-125640000D03*
X148100000Y-123100000D03*
X141750000Y-125640000D03*
D14*
X121000000Y-73876500D03*
D15*
X121000000Y-71336500D03*
X121000000Y-68796500D03*
X121000000Y-66256500D03*
D16*
X98925000Y-70130000D02*
X97087000Y-70130000D01*
X97164000Y-87540000D02*
X103650000Y-87540000D01*
X96641000Y-70576000D02*
X96641000Y-87017000D01*
X97087000Y-70130000D02*
X96641000Y-70576000D01*
X96641000Y-87017000D02*
X97164000Y-87540000D01*
X117615000Y-87540000D02*
X117092000Y-87017000D01*
X97443000Y-81002000D02*
X116691000Y-81002000D01*
X97042000Y-78195000D02*
X97042000Y-80601000D01*
X97487000Y-77750000D02*
X97042000Y-78195000D01*
X97042000Y-80601000D02*
X97443000Y-81002000D01*
X117092000Y-81403000D02*
X116691000Y-81002000D01*
X117092000Y-87017000D02*
X117092000Y-81403000D01*
X98925000Y-77750000D02*
X97487000Y-77750000D01*
X122700000Y-87540000D02*
X117615000Y-87540000D01*
X137000000Y-80361700D02*
X137000000Y-87000000D01*
X141750000Y-87540000D02*
X137540000Y-87540000D01*
X137540000Y-87540000D02*
X137000000Y-87000000D01*
X115835000Y-70130000D02*
X118651000Y-70130000D01*
X119498000Y-79398000D02*
X136036300Y-79398000D01*
X136036300Y-79398000D02*
X137000000Y-80361700D01*
X118651000Y-70130000D02*
X119097000Y-70576000D01*
X119097000Y-78997000D02*
X119498000Y-79398000D01*
X119097000Y-70576000D02*
X119097000Y-78997000D01*
X96553000Y-65050000D02*
X95839000Y-65764000D01*
X96164000Y-106590000D02*
X103650000Y-106590000D01*
X95839000Y-106265000D02*
X96164000Y-106590000D01*
X99760000Y-65050000D02*
X96553000Y-65050000D01*
X95839000Y-65764000D02*
X95839000Y-106265000D01*
X117417000Y-106590000D02*
X122700000Y-106590000D01*
X99760000Y-67590000D02*
X96820000Y-67590000D01*
X96240000Y-68170000D02*
X96240000Y-99448000D01*
X96820000Y-67590000D02*
X96240000Y-68170000D01*
X117092000Y-106265000D02*
X117417000Y-106590000D01*
X117092000Y-100250000D02*
X117092000Y-106265000D01*
X96641000Y-99849000D02*
X116691000Y-99849000D01*
X96240000Y-99448000D02*
X96641000Y-99849000D01*
X116691000Y-99849000D02*
X117092000Y-100250000D01*
X136599000Y-106189000D02*
X137000000Y-106590000D01*
X115000000Y-72670000D02*
X118384000Y-72670000D01*
X118384000Y-72670000D02*
X118696000Y-72982000D01*
X136599000Y-80527800D02*
X136599000Y-106189000D01*
X119331900Y-79799000D02*
X135870200Y-79799000D01*
X141750000Y-106590000D02*
X137000000Y-106590000D01*
X118696000Y-72982000D02*
X118696000Y-79163100D01*
X118696000Y-79163100D02*
X119331900Y-79799000D01*
X135870200Y-79799000D02*
X136599000Y-80527800D01*
X99760000Y-62510000D02*
X95885000Y-62510000D01*
X95885000Y-62510000D02*
X95438000Y-62957000D01*
X95438000Y-62957000D02*
X95438000Y-125112000D01*
X95966000Y-125640000D02*
X103650000Y-125640000D01*
X95438000Y-125112000D02*
X95966000Y-125640000D01*
X135797000Y-80860000D02*
X135538000Y-80601000D01*
X117449000Y-77750000D02*
X115000000Y-77750000D01*
X118999700Y-80601000D02*
X117894000Y-79495300D01*
X135797000Y-125000000D02*
X135797000Y-80860000D01*
X135538000Y-80601000D02*
X118999700Y-80601000D01*
X117894000Y-78195000D02*
X117449000Y-77750000D01*
X135157000Y-125640000D02*
X135797000Y-125000000D01*
X122700000Y-125640000D02*
X135157000Y-125640000D01*
X117894000Y-79495300D02*
X117894000Y-78195000D01*
X118295000Y-75789000D02*
X117716000Y-75210000D01*
X135704100Y-80200000D02*
X119165800Y-80200000D01*
X136198000Y-125000000D02*
X136198000Y-80693900D01*
X118295000Y-79329200D02*
X118295000Y-75789000D01*
X136198000Y-80693900D02*
X135704100Y-80200000D01*
X117716000Y-75210000D02*
X115000000Y-75210000D01*
X136838000Y-125640000D02*
X136198000Y-125000000D01*
X141750000Y-125640000D02*
X136838000Y-125640000D01*
X119165800Y-80200000D02*
X118295000Y-79329200D01*
M02*
