%TF.GenerationSoftware,KiCad,Pcbnew,9.0.6*%
%TF.CreationDate,2025-12-23T13:35:11+01:00*%
%TF.ProjectId,macropad,6d616372-6f70-4616-942e-6b696361645f,rev?*%
%TF.SameCoordinates,Original*%
%TF.FileFunction,Legend,Bot*%
%TF.FilePolarity,Positive*%
%FSLAX46Y46*%
G04 Gerber Fmt 4.6, Leading zero omitted, Abs format (unit mm)*
G04 Created by KiCad (PCBNEW 9.0.6) date 2025-12-23 13:35:11*
%MOMM*%
%LPD*%
G01*
G04 APERTURE LIST*
%ADD10C,0.000000*%
%ADD11C,0.150000*%
%ADD12C,1.524000*%
%ADD13C,1.700000*%
%ADD14C,4.000000*%
%ADD15C,2.200000*%
%ADD16R,1.700000X1.700000*%
%ADD17O,1.700000X1.700000*%
G04 APERTURE END LIST*
D10*
G36*
X147542781Y-75093989D02*
G01*
X147253006Y-75093989D01*
X147253006Y-75993485D01*
X147135132Y-75993485D01*
X147135132Y-75093989D01*
X146844655Y-75093989D01*
X146844655Y-74987340D01*
X147542781Y-74987340D01*
X147542781Y-75093989D01*
G37*
G36*
X145475063Y-75993485D02*
G01*
X144941821Y-75993485D01*
X144941821Y-75886836D01*
X145357189Y-75886836D01*
X145357189Y-75534616D01*
X144993742Y-75534616D01*
X144993742Y-75428668D01*
X145357189Y-75428668D01*
X145357189Y-75093989D01*
X144964273Y-75093989D01*
X144964273Y-74987340D01*
X145475063Y-74987340D01*
X145475063Y-75993485D01*
G37*
G36*
X145637328Y-74511781D02*
G01*
X145354046Y-74511781D01*
X145354046Y-73254107D01*
X145637328Y-73254107D01*
X145637328Y-74511781D01*
G37*
G36*
X144470032Y-74972181D02*
G01*
X144484947Y-74973011D01*
X144499632Y-74974396D01*
X144514087Y-74976333D01*
X144528312Y-74978825D01*
X144542306Y-74981870D01*
X144556070Y-74985468D01*
X144569604Y-74989621D01*
X144582908Y-74994327D01*
X144595981Y-74999586D01*
X144608824Y-75005400D01*
X144621437Y-75011766D01*
X144633820Y-75018687D01*
X144645973Y-75026161D01*
X144657895Y-75034188D01*
X144669587Y-75042770D01*
X144680802Y-75051877D01*
X144691294Y-75061484D01*
X144701062Y-75071589D01*
X144710106Y-75082193D01*
X144718427Y-75093296D01*
X144726025Y-75104898D01*
X144732899Y-75116998D01*
X144739049Y-75129598D01*
X144744476Y-75142696D01*
X144749179Y-75156293D01*
X144753158Y-75170388D01*
X144756414Y-75184983D01*
X144758947Y-75200076D01*
X144760756Y-75215669D01*
X144761841Y-75231760D01*
X144762203Y-75248349D01*
X144761951Y-75261524D01*
X144761194Y-75274386D01*
X144759934Y-75286936D01*
X144758168Y-75299174D01*
X144755899Y-75311099D01*
X144753125Y-75322711D01*
X144749847Y-75334011D01*
X144746065Y-75344999D01*
X144741778Y-75355674D01*
X144736987Y-75366037D01*
X144731692Y-75376088D01*
X144725893Y-75385826D01*
X144719589Y-75395251D01*
X144712781Y-75404364D01*
X144705468Y-75413165D01*
X144697652Y-75421653D01*
X144689155Y-75429801D01*
X144679979Y-75437757D01*
X144670124Y-75445522D01*
X144659588Y-75453095D01*
X144648373Y-75460475D01*
X144636478Y-75467664D01*
X144623904Y-75474661D01*
X144610649Y-75481467D01*
X144596715Y-75488080D01*
X144582102Y-75494502D01*
X144566808Y-75500732D01*
X144550835Y-75506769D01*
X144534182Y-75512615D01*
X144516850Y-75518270D01*
X144498837Y-75523732D01*
X144480145Y-75529002D01*
X144467195Y-75532670D01*
X144454656Y-75536479D01*
X144442528Y-75540432D01*
X144430811Y-75544526D01*
X144419506Y-75548764D01*
X144408611Y-75553143D01*
X144398128Y-75557666D01*
X144388055Y-75562330D01*
X144378394Y-75567138D01*
X144369144Y-75572088D01*
X144360305Y-75577180D01*
X144351877Y-75582415D01*
X144343860Y-75587792D01*
X144336255Y-75593312D01*
X144329060Y-75598975D01*
X144322277Y-75604779D01*
X144315820Y-75610688D01*
X144309779Y-75616839D01*
X144304155Y-75623230D01*
X144298948Y-75629863D01*
X144294157Y-75636736D01*
X144289783Y-75643851D01*
X144285826Y-75651208D01*
X144282284Y-75658805D01*
X144279160Y-75666643D01*
X144276452Y-75674723D01*
X144274161Y-75683044D01*
X144272286Y-75691606D01*
X144270828Y-75700410D01*
X144269786Y-75709454D01*
X144269161Y-75718740D01*
X144268953Y-75728267D01*
X144269172Y-75738386D01*
X144269830Y-75748220D01*
X144270927Y-75757768D01*
X144272461Y-75767032D01*
X144274435Y-75776011D01*
X144276847Y-75784705D01*
X144279697Y-75793113D01*
X144282986Y-75801237D01*
X144286714Y-75809075D01*
X144290880Y-75816629D01*
X144295484Y-75823897D01*
X144300527Y-75830881D01*
X144306009Y-75837579D01*
X144311929Y-75843992D01*
X144318287Y-75850121D01*
X144325085Y-75855964D01*
X144332254Y-75861402D01*
X144339731Y-75866489D01*
X144347515Y-75871225D01*
X144355605Y-75875610D01*
X144364003Y-75879645D01*
X144372708Y-75883328D01*
X144381719Y-75886661D01*
X144391038Y-75889643D01*
X144400663Y-75892274D01*
X144410596Y-75894555D01*
X144420835Y-75896484D01*
X144431381Y-75898063D01*
X144442235Y-75899291D01*
X144453395Y-75900168D01*
X144464862Y-75900694D01*
X144476637Y-75900870D01*
X144486712Y-75900727D01*
X144496589Y-75900299D01*
X144506270Y-75899587D01*
X144515753Y-75898589D01*
X144525038Y-75897307D01*
X144534127Y-75895739D01*
X144543018Y-75893886D01*
X144551712Y-75891748D01*
X144560208Y-75889325D01*
X144568507Y-75886617D01*
X144576609Y-75883625D01*
X144584513Y-75880347D01*
X144592220Y-75876784D01*
X144599730Y-75872936D01*
X144607043Y-75868803D01*
X144614157Y-75864385D01*
X144621075Y-75859695D01*
X144627795Y-75854748D01*
X144634318Y-75849543D01*
X144640644Y-75844081D01*
X144646772Y-75838361D01*
X144652703Y-75832383D01*
X144658437Y-75826148D01*
X144663974Y-75819655D01*
X144669313Y-75812904D01*
X144674454Y-75805896D01*
X144679399Y-75798630D01*
X144684146Y-75791107D01*
X144688695Y-75783326D01*
X144693048Y-75775287D01*
X144697203Y-75766991D01*
X144701160Y-75758437D01*
X144809213Y-75809656D01*
X144809213Y-75809658D01*
X144804203Y-75821504D01*
X144798821Y-75833009D01*
X144793065Y-75844175D01*
X144786937Y-75855001D01*
X144780435Y-75865487D01*
X144773561Y-75875634D01*
X144766315Y-75885440D01*
X144758695Y-75894907D01*
X144750703Y-75904033D01*
X144742338Y-75912820D01*
X144733601Y-75921267D01*
X144724491Y-75929375D01*
X144715007Y-75937142D01*
X144705152Y-75944569D01*
X144694923Y-75951657D01*
X144684322Y-75958405D01*
X144673378Y-75964692D01*
X144662122Y-75970574D01*
X144650553Y-75976050D01*
X144638672Y-75981120D01*
X144626478Y-75985785D01*
X144613972Y-75990044D01*
X144601153Y-75993897D01*
X144588022Y-75997345D01*
X144574579Y-76000388D01*
X144560823Y-76003024D01*
X144546755Y-76005255D01*
X144532374Y-76007081D01*
X144517681Y-76008500D01*
X144502675Y-76009514D01*
X144487357Y-76010123D01*
X144471726Y-76010326D01*
X144452796Y-76009994D01*
X144434419Y-76008999D01*
X144416596Y-76007341D01*
X144399327Y-76005020D01*
X144382611Y-76002035D01*
X144366449Y-75998387D01*
X144350840Y-75994076D01*
X144335785Y-75989101D01*
X144321284Y-75983463D01*
X144307336Y-75977162D01*
X144293942Y-75970198D01*
X144281101Y-75962571D01*
X144268815Y-75954280D01*
X144257081Y-75945326D01*
X144245902Y-75935708D01*
X144235276Y-75925428D01*
X144225165Y-75914673D01*
X144215707Y-75903633D01*
X144206901Y-75892308D01*
X144198747Y-75880698D01*
X144191246Y-75868803D01*
X144184396Y-75856623D01*
X144178199Y-75844158D01*
X144172655Y-75831408D01*
X144167762Y-75818373D01*
X144163522Y-75805053D01*
X144159935Y-75791448D01*
X144156999Y-75777558D01*
X144154716Y-75763383D01*
X144153086Y-75748922D01*
X144152107Y-75734177D01*
X144151781Y-75719147D01*
X144152044Y-75704424D01*
X144152833Y-75690073D01*
X144154149Y-75676095D01*
X144155991Y-75662490D01*
X144158359Y-75649258D01*
X144161253Y-75636398D01*
X144164674Y-75623911D01*
X144168621Y-75611797D01*
X144173093Y-75600056D01*
X144178093Y-75588687D01*
X144183618Y-75577691D01*
X144189670Y-75567068D01*
X144196247Y-75556817D01*
X144203351Y-75546940D01*
X144210982Y-75537435D01*
X144219138Y-75528302D01*
X144227922Y-75519387D01*
X144237435Y-75510706D01*
X144247677Y-75502262D01*
X144258648Y-75494053D01*
X144270349Y-75486081D01*
X144282778Y-75478343D01*
X144295936Y-75470842D01*
X144309824Y-75463576D01*
X144324440Y-75456546D01*
X144339786Y-75449752D01*
X144355860Y-75443193D01*
X144372664Y-75436870D01*
X144390197Y-75430783D01*
X144408458Y-75424932D01*
X144427449Y-75419316D01*
X144447169Y-75413936D01*
X144460681Y-75410299D01*
X144473678Y-75406580D01*
X144486159Y-75402778D01*
X144498125Y-75398894D01*
X144509576Y-75394928D01*
X144520512Y-75390880D01*
X144530932Y-75386750D01*
X144540837Y-75382537D01*
X144550227Y-75378243D01*
X144559102Y-75373866D01*
X144567461Y-75369406D01*
X144575305Y-75364865D01*
X144582634Y-75360241D01*
X144589448Y-75355535D01*
X144595746Y-75350747D01*
X144601529Y-75345877D01*
X144606797Y-75340839D01*
X144611724Y-75335550D01*
X144616312Y-75330008D01*
X144620561Y-75324214D01*
X144624469Y-75318168D01*
X144628037Y-75311869D01*
X144631266Y-75305319D01*
X144634155Y-75298516D01*
X144636704Y-75291462D01*
X144638913Y-75284155D01*
X144640782Y-75276596D01*
X144642312Y-75268784D01*
X144643501Y-75260721D01*
X144644351Y-75252405D01*
X144644861Y-75243838D01*
X144645031Y-75235018D01*
X144644836Y-75226193D01*
X144644252Y-75217609D01*
X144643279Y-75209266D01*
X144641917Y-75201164D01*
X144640166Y-75193304D01*
X144638025Y-75185684D01*
X144635495Y-75178306D01*
X144632576Y-75171169D01*
X144629268Y-75164274D01*
X144625571Y-75157619D01*
X144621484Y-75151206D01*
X144617009Y-75145033D01*
X144612144Y-75139102D01*
X144606890Y-75133413D01*
X144601247Y-75127964D01*
X144595215Y-75122756D01*
X144588752Y-75117744D01*
X144581993Y-75113054D01*
X144574938Y-75108688D01*
X144567588Y-75104646D01*
X144559941Y-75100926D01*
X144551998Y-75097531D01*
X144543759Y-75094458D01*
X144535225Y-75091709D01*
X144526394Y-75089284D01*
X144517267Y-75087182D01*
X144507844Y-75085403D01*
X144498126Y-75083947D01*
X144488111Y-75082816D01*
X144477800Y-75082007D01*
X144467194Y-75081522D01*
X144456291Y-75081360D01*
X144447850Y-75081478D01*
X144439540Y-75081832D01*
X144431361Y-75082421D01*
X144423314Y-75083246D01*
X144415399Y-75084306D01*
X144407615Y-75085603D01*
X144399963Y-75087135D01*
X144392442Y-75088903D01*
X144385053Y-75090906D01*
X144377796Y-75093145D01*
X144370670Y-75095620D01*
X144363675Y-75098331D01*
X144356812Y-75101277D01*
X144350081Y-75104459D01*
X144343481Y-75107876D01*
X144337013Y-75111530D01*
X144330589Y-75115369D01*
X144324296Y-75119522D01*
X144318135Y-75123986D01*
X144312105Y-75128764D01*
X144306207Y-75133853D01*
X144300441Y-75139255D01*
X144294806Y-75144970D01*
X144289302Y-75150997D01*
X144283930Y-75157336D01*
X144278690Y-75163988D01*
X144273581Y-75170952D01*
X144268604Y-75178229D01*
X144263758Y-75185818D01*
X144259044Y-75193720D01*
X144254461Y-75201934D01*
X144250010Y-75210460D01*
X144146168Y-75164853D01*
X144152507Y-75152775D01*
X144159071Y-75141097D01*
X144165860Y-75129818D01*
X144172873Y-75118940D01*
X144180112Y-75108462D01*
X144187575Y-75098385D01*
X144195263Y-75088707D01*
X144203175Y-75079430D01*
X144211312Y-75070552D01*
X144219674Y-75062075D01*
X144228261Y-75053998D01*
X144237073Y-75046321D01*
X144246109Y-75039045D01*
X144255370Y-75032168D01*
X144264856Y-75025692D01*
X144274566Y-75019616D01*
X144284398Y-75013838D01*
X144294421Y-75008433D01*
X144304635Y-75003401D01*
X144315042Y-74998742D01*
X144325641Y-74994455D01*
X144336431Y-74990541D01*
X144347413Y-74987000D01*
X144358587Y-74983832D01*
X144369953Y-74981036D01*
X144381511Y-74978613D01*
X144393261Y-74976563D01*
X144405202Y-74974886D01*
X144417335Y-74973581D01*
X144429661Y-74972650D01*
X144442177Y-74972091D01*
X144454886Y-74971904D01*
X144470032Y-74972181D01*
G37*
G36*
X151629805Y-75993485D02*
G01*
X151511931Y-75993485D01*
X151511931Y-74987340D01*
X151629805Y-74987340D01*
X151629805Y-75993485D01*
G37*
G36*
X144610667Y-73778576D02*
G01*
X144622068Y-73800063D01*
X144627111Y-73809820D01*
X144631716Y-73818919D01*
X144635882Y-73827361D01*
X144639610Y-73835145D01*
X144642899Y-73842271D01*
X144645749Y-73848739D01*
X144650134Y-73848739D01*
X144650134Y-73254107D01*
X144933416Y-73254107D01*
X144933416Y-74511780D01*
X144650134Y-74511780D01*
X144650134Y-73896099D01*
X144645749Y-73896099D01*
X144640240Y-73908885D01*
X144635114Y-73920492D01*
X144630373Y-73930921D01*
X144626015Y-73940171D01*
X144622041Y-73948242D01*
X144618450Y-73955135D01*
X144615244Y-73960850D01*
X144613784Y-73963265D01*
X144612421Y-73965386D01*
X144245819Y-74511781D01*
X143887987Y-74511781D01*
X144364219Y-73854001D01*
X143925699Y-73254107D01*
X144263359Y-73254107D01*
X144610667Y-73778576D01*
G37*
G36*
X150200575Y-75993485D02*
G01*
X149933954Y-75993485D01*
X149903134Y-75992953D01*
X149873120Y-75991358D01*
X149843912Y-75988699D01*
X149815509Y-75984977D01*
X149787913Y-75980192D01*
X149761122Y-75974343D01*
X149735137Y-75967431D01*
X149709957Y-75959456D01*
X149685584Y-75950417D01*
X149662016Y-75940314D01*
X149639254Y-75929148D01*
X149617298Y-75916919D01*
X149596147Y-75903626D01*
X149575802Y-75889270D01*
X149556264Y-75873851D01*
X149537530Y-75857368D01*
X149519773Y-75839851D01*
X149503161Y-75821507D01*
X149487695Y-75802336D01*
X149473374Y-75782336D01*
X149460200Y-75761509D01*
X149448170Y-75739854D01*
X149437287Y-75717372D01*
X149427549Y-75694062D01*
X149418956Y-75669924D01*
X149411510Y-75644958D01*
X149405209Y-75619165D01*
X149400053Y-75592544D01*
X149396044Y-75565096D01*
X149393180Y-75536819D01*
X149391461Y-75507715D01*
X149390942Y-75480590D01*
X149514376Y-75480590D01*
X149514806Y-75505709D01*
X149516097Y-75530022D01*
X149518248Y-75553530D01*
X149521261Y-75576232D01*
X149525133Y-75598128D01*
X149529867Y-75619218D01*
X149535460Y-75639502D01*
X149541915Y-75658981D01*
X149549230Y-75677653D01*
X149557406Y-75695520D01*
X149566442Y-75712582D01*
X149576339Y-75728837D01*
X149587097Y-75744287D01*
X149598715Y-75758931D01*
X149611193Y-75772769D01*
X149624533Y-75785801D01*
X149638645Y-75798036D01*
X149653442Y-75809481D01*
X149668925Y-75820137D01*
X149685093Y-75830004D01*
X149701945Y-75839082D01*
X149719484Y-75847370D01*
X149737707Y-75854868D01*
X149756615Y-75861578D01*
X149776209Y-75867498D01*
X149796488Y-75872628D01*
X149817452Y-75876970D01*
X149839101Y-75880522D01*
X149861436Y-75883284D01*
X149884455Y-75885258D01*
X149908160Y-75886442D01*
X149932550Y-75886836D01*
X150082700Y-75886836D01*
X150082700Y-75093989D01*
X149925534Y-75093990D01*
X149899987Y-75094349D01*
X149875268Y-75095426D01*
X149851377Y-75097221D01*
X149828314Y-75099734D01*
X149806078Y-75102966D01*
X149784670Y-75106915D01*
X149764089Y-75111583D01*
X149744337Y-75116968D01*
X149725412Y-75123072D01*
X149707315Y-75129894D01*
X149690045Y-75137433D01*
X149673603Y-75145691D01*
X149657989Y-75154667D01*
X149643203Y-75164361D01*
X149629244Y-75174774D01*
X149616113Y-75185904D01*
X149603793Y-75197826D01*
X149592268Y-75210615D01*
X149581538Y-75224269D01*
X149571603Y-75238790D01*
X149562462Y-75254176D01*
X149554117Y-75270429D01*
X149546566Y-75287548D01*
X149539810Y-75305533D01*
X149533849Y-75324383D01*
X149528682Y-75344100D01*
X149524311Y-75364684D01*
X149520734Y-75386133D01*
X149517952Y-75408448D01*
X149515965Y-75431629D01*
X149514773Y-75455677D01*
X149514376Y-75480590D01*
X149390942Y-75480590D01*
X149390888Y-75477783D01*
X149391417Y-75447150D01*
X149393004Y-75417520D01*
X149395649Y-75388892D01*
X149399352Y-75361268D01*
X149404113Y-75334647D01*
X149409931Y-75309029D01*
X149416808Y-75284414D01*
X149424742Y-75260803D01*
X149433735Y-75238194D01*
X149443785Y-75216589D01*
X149454894Y-75195986D01*
X149467060Y-75176387D01*
X149480284Y-75157791D01*
X149494566Y-75140198D01*
X149509906Y-75123608D01*
X149526304Y-75108021D01*
X149543640Y-75093407D01*
X149561967Y-75079737D01*
X149581287Y-75067009D01*
X149601598Y-75055223D01*
X149622902Y-75044381D01*
X149645198Y-75034481D01*
X149668486Y-75025524D01*
X149692767Y-75017511D01*
X149718039Y-75010439D01*
X149744304Y-75004311D01*
X149771561Y-74999126D01*
X149799810Y-74994883D01*
X149829051Y-74991583D01*
X149859284Y-74989226D01*
X149890510Y-74987812D01*
X149922728Y-74987340D01*
X150200575Y-74987340D01*
X150200575Y-75886836D01*
X150200575Y-75993485D01*
G37*
G36*
X147883601Y-74001345D02*
G01*
X147883790Y-74019043D01*
X147884358Y-74036180D01*
X147885305Y-74052755D01*
X147886630Y-74068767D01*
X147888333Y-74084218D01*
X147890415Y-74099108D01*
X147892876Y-74113435D01*
X147895715Y-74127200D01*
X147898933Y-74140404D01*
X147902529Y-74153045D01*
X147906504Y-74165125D01*
X147910858Y-74176643D01*
X147915590Y-74187599D01*
X147920701Y-74197994D01*
X147926190Y-74207826D01*
X147932058Y-74217097D01*
X147938304Y-74225806D01*
X147944929Y-74233952D01*
X147951933Y-74241537D01*
X147959315Y-74248561D01*
X147967075Y-74255022D01*
X147975214Y-74260921D01*
X147983732Y-74266259D01*
X147992629Y-74271035D01*
X148001903Y-74275249D01*
X148011557Y-74278901D01*
X148021589Y-74281991D01*
X148032000Y-74284519D01*
X148042789Y-74286486D01*
X148053956Y-74287890D01*
X148065503Y-74288733D01*
X148077427Y-74289014D01*
X148088651Y-74288798D01*
X148099737Y-74288151D01*
X148110686Y-74287072D01*
X148121498Y-74285561D01*
X148132174Y-74283618D01*
X148142712Y-74281244D01*
X148153113Y-74278438D01*
X148163377Y-74275201D01*
X148173504Y-74271531D01*
X148183494Y-74267430D01*
X148193347Y-74262898D01*
X148203063Y-74257934D01*
X148212642Y-74252538D01*
X148222083Y-74246710D01*
X148231388Y-74240451D01*
X148240556Y-74233760D01*
X148240556Y-74499503D01*
X148229973Y-74503645D01*
X148219274Y-74507519D01*
X148208458Y-74511127D01*
X148197526Y-74514467D01*
X148186477Y-74517540D01*
X148175312Y-74520346D01*
X148164031Y-74522885D01*
X148152633Y-74525156D01*
X148141118Y-74527161D01*
X148129487Y-74528898D01*
X148117740Y-74530368D01*
X148105876Y-74531570D01*
X148093895Y-74532505D01*
X148081798Y-74533173D01*
X148069585Y-74533574D01*
X148057255Y-74533708D01*
X148029930Y-74533184D01*
X148003426Y-74531611D01*
X147977746Y-74528990D01*
X147952887Y-74525321D01*
X147928851Y-74520604D01*
X147905637Y-74514838D01*
X147883245Y-74508024D01*
X147861675Y-74500161D01*
X147840928Y-74491250D01*
X147821002Y-74481291D01*
X147801900Y-74470283D01*
X147783619Y-74458227D01*
X147766160Y-74445123D01*
X147749524Y-74430971D01*
X147733710Y-74415770D01*
X147718718Y-74399520D01*
X147704487Y-74382284D01*
X147691174Y-74364123D01*
X147678779Y-74345037D01*
X147667302Y-74325027D01*
X147656743Y-74304091D01*
X147647103Y-74282230D01*
X147638380Y-74259444D01*
X147630576Y-74235733D01*
X147623690Y-74211097D01*
X147617722Y-74185536D01*
X147612672Y-74159050D01*
X147608540Y-74131640D01*
X147605327Y-74103304D01*
X147603031Y-74074043D01*
X147601654Y-74043857D01*
X147601195Y-74012746D01*
X147601195Y-73254107D01*
X147883601Y-73254107D01*
X147883601Y-74001345D01*
G37*
G36*
X145843422Y-75993485D02*
G01*
X145725548Y-75993485D01*
X145725548Y-74987340D01*
X145843422Y-74987340D01*
X145843422Y-75993485D01*
G37*
G36*
X148424819Y-65185733D02*
G01*
X148420426Y-65224365D01*
X148413212Y-65262239D01*
X148403265Y-65299225D01*
X148390675Y-65335191D01*
X148375530Y-65370007D01*
X148357917Y-65403540D01*
X148337927Y-65435661D01*
X148315646Y-65466237D01*
X148291164Y-65495138D01*
X148264570Y-65522232D01*
X148235950Y-65547389D01*
X148205395Y-65570476D01*
X148172993Y-65591363D01*
X148138831Y-65609919D01*
X148102999Y-65626013D01*
X148103027Y-65927456D01*
X149439166Y-65927456D01*
X149439201Y-65927456D01*
X150361850Y-66850105D01*
X151235671Y-66850105D01*
X151235671Y-67238036D01*
X150201189Y-67238036D01*
X150201154Y-67238036D01*
X149278505Y-66315387D01*
X147715028Y-66315387D01*
X147715028Y-65927456D01*
X147715098Y-65927456D01*
X147715098Y-65625968D01*
X147696980Y-65618236D01*
X147679268Y-65609873D01*
X147661975Y-65600894D01*
X147645110Y-65591317D01*
X147628684Y-65581156D01*
X147612710Y-65570429D01*
X147597197Y-65559152D01*
X147582157Y-65547342D01*
X147567601Y-65535014D01*
X147553540Y-65522186D01*
X147539986Y-65508874D01*
X147526948Y-65495093D01*
X147514439Y-65480861D01*
X147502468Y-65466194D01*
X147491049Y-65451108D01*
X147480190Y-65435620D01*
X147469904Y-65419746D01*
X147460201Y-65403502D01*
X147451093Y-65386905D01*
X147442591Y-65369972D01*
X147434705Y-65352718D01*
X147427447Y-65335160D01*
X147420828Y-65317315D01*
X147414858Y-65299199D01*
X147409549Y-65280828D01*
X147404913Y-65262218D01*
X147400959Y-65243387D01*
X147397699Y-65224350D01*
X147395145Y-65205124D01*
X147393306Y-65185725D01*
X147392195Y-65166170D01*
X147391822Y-65146475D01*
X147693544Y-65146475D01*
X147693809Y-65157162D01*
X147694598Y-65167777D01*
X147695906Y-65178301D01*
X147697723Y-65188717D01*
X147700044Y-65199008D01*
X147702860Y-65209155D01*
X147706164Y-65219142D01*
X147709949Y-65228950D01*
X147714208Y-65238562D01*
X147718933Y-65247960D01*
X147724118Y-65257127D01*
X147729753Y-65266045D01*
X147735834Y-65274695D01*
X147742351Y-65283061D01*
X147749298Y-65291125D01*
X147756667Y-65298869D01*
X147764411Y-65306239D01*
X147772475Y-65313186D01*
X147780841Y-65319703D01*
X147789492Y-65325783D01*
X147798410Y-65331419D01*
X147807576Y-65336603D01*
X147816974Y-65341329D01*
X147826586Y-65345587D01*
X147836395Y-65349373D01*
X147846381Y-65352677D01*
X147856529Y-65355493D01*
X147866820Y-65357813D01*
X147877236Y-65359631D01*
X147887760Y-65360938D01*
X147898375Y-65361728D01*
X147909062Y-65361993D01*
X147919748Y-65361728D01*
X147930363Y-65360938D01*
X147940887Y-65359631D01*
X147951303Y-65357813D01*
X147961594Y-65355493D01*
X147971741Y-65352677D01*
X147981728Y-65349373D01*
X147991536Y-65345587D01*
X148001148Y-65341329D01*
X148010546Y-65336603D01*
X148019713Y-65331419D01*
X148028630Y-65325783D01*
X148037281Y-65319703D01*
X148045647Y-65313186D01*
X148053711Y-65306239D01*
X148061455Y-65298869D01*
X148068824Y-65291125D01*
X148075772Y-65283061D01*
X148082289Y-65274695D01*
X148088369Y-65266045D01*
X148094005Y-65257127D01*
X148099189Y-65247960D01*
X148103915Y-65238562D01*
X148108173Y-65228950D01*
X148111959Y-65219142D01*
X148115263Y-65209155D01*
X148118079Y-65199008D01*
X148120399Y-65188717D01*
X148122217Y-65178301D01*
X148123524Y-65167777D01*
X148124314Y-65157162D01*
X148124579Y-65146475D01*
X148124314Y-65135789D01*
X148123524Y-65125174D01*
X148122217Y-65114650D01*
X148120399Y-65104234D01*
X148118079Y-65093943D01*
X148115263Y-65083795D01*
X148111959Y-65073809D01*
X148108173Y-65064001D01*
X148103915Y-65054389D01*
X148099189Y-65044990D01*
X148094005Y-65035824D01*
X148088369Y-65026906D01*
X148082289Y-65018256D01*
X148075772Y-65009890D01*
X148068824Y-65001826D01*
X148061455Y-64994082D01*
X148053711Y-64986712D01*
X148045647Y-64979765D01*
X148037281Y-64973248D01*
X148028630Y-64967168D01*
X148019713Y-64961532D01*
X148010546Y-64956347D01*
X148001148Y-64951622D01*
X147991536Y-64947363D01*
X147981728Y-64943578D01*
X147971741Y-64940274D01*
X147961594Y-64937458D01*
X147951303Y-64935137D01*
X147940887Y-64933320D01*
X147930363Y-64932013D01*
X147919748Y-64931223D01*
X147909062Y-64930958D01*
X147898375Y-64931223D01*
X147887760Y-64932013D01*
X147877236Y-64933320D01*
X147866820Y-64935137D01*
X147856529Y-64937458D01*
X147846381Y-64940274D01*
X147836395Y-64943578D01*
X147826586Y-64947363D01*
X147816974Y-64951622D01*
X147807576Y-64956347D01*
X147798410Y-64961532D01*
X147789492Y-64967168D01*
X147780841Y-64973248D01*
X147772475Y-64979765D01*
X147764411Y-64986712D01*
X147756667Y-64994082D01*
X147749298Y-65001826D01*
X147742351Y-65009890D01*
X147735834Y-65018256D01*
X147729753Y-65026906D01*
X147724118Y-65035824D01*
X147718933Y-65044990D01*
X147714208Y-65054389D01*
X147709949Y-65064001D01*
X147706164Y-65073809D01*
X147702860Y-65083795D01*
X147700044Y-65093943D01*
X147697723Y-65104234D01*
X147695906Y-65114650D01*
X147694598Y-65125174D01*
X147693809Y-65135789D01*
X147693544Y-65146475D01*
X147391822Y-65146475D01*
X147392458Y-65120827D01*
X147394353Y-65095352D01*
X147397491Y-65070094D01*
X147401853Y-65045095D01*
X147407422Y-65020398D01*
X147414180Y-64996043D01*
X147422110Y-64972075D01*
X147431195Y-64948536D01*
X147441416Y-64925467D01*
X147452757Y-64902911D01*
X147465199Y-64880912D01*
X147478725Y-64859510D01*
X147493317Y-64838748D01*
X147508959Y-64818670D01*
X147525632Y-64799316D01*
X147543319Y-64780731D01*
X147561905Y-64763044D01*
X147581258Y-64746371D01*
X147601336Y-64730729D01*
X147622098Y-64716137D01*
X147643500Y-64702611D01*
X147665499Y-64690169D01*
X147688055Y-64678828D01*
X147711124Y-64668607D01*
X147734663Y-64659522D01*
X147758631Y-64651592D01*
X147782986Y-64644834D01*
X147807683Y-64639265D01*
X147832682Y-64634903D01*
X147857940Y-64631765D01*
X147883415Y-64629870D01*
X147909063Y-64629234D01*
X147934710Y-64629870D01*
X147960185Y-64631765D01*
X147985443Y-64634903D01*
X148010442Y-64639265D01*
X148035139Y-64644834D01*
X148059494Y-64651592D01*
X148083462Y-64659522D01*
X148107001Y-64668607D01*
X148130070Y-64678828D01*
X148152625Y-64690169D01*
X148174625Y-64702611D01*
X148196027Y-64716137D01*
X148216788Y-64730729D01*
X148236867Y-64746371D01*
X148256220Y-64763044D01*
X148274806Y-64780731D01*
X148292493Y-64799316D01*
X148309166Y-64818670D01*
X148324807Y-64838748D01*
X148339400Y-64859510D01*
X148352926Y-64880912D01*
X148365368Y-64902911D01*
X148376709Y-64925467D01*
X148386930Y-64948536D01*
X148396015Y-64972075D01*
X148403945Y-64996043D01*
X148410703Y-65020398D01*
X148416272Y-65045095D01*
X148420635Y-65070094D01*
X148423772Y-65095352D01*
X148425667Y-65120827D01*
X148426303Y-65146475D01*
X148424819Y-65185733D01*
G37*
G36*
X146327206Y-73949599D02*
G01*
X146327097Y-73980501D01*
X146326768Y-74008744D01*
X146326220Y-74034329D01*
X146325453Y-74057256D01*
X146324466Y-74077524D01*
X146323260Y-74095133D01*
X146321835Y-74110084D01*
X146320190Y-74122376D01*
X146323699Y-74122376D01*
X146338499Y-74096887D01*
X146353957Y-74071288D01*
X146370072Y-74045580D01*
X146386845Y-74019762D01*
X146885881Y-73254107D01*
X147191090Y-73254107D01*
X147191090Y-74511780D01*
X146923594Y-74511780D01*
X146923594Y-73820674D01*
X146923704Y-73787566D01*
X146924033Y-73756650D01*
X146924581Y-73727927D01*
X146925348Y-73701397D01*
X146926335Y-73677059D01*
X146927541Y-73654914D01*
X146928966Y-73634961D01*
X146930610Y-73617201D01*
X146927102Y-73617201D01*
X146922278Y-73626506D01*
X146916577Y-73636880D01*
X146910000Y-73648323D01*
X146902545Y-73660834D01*
X146894213Y-73674414D01*
X146885004Y-73689064D01*
X146863954Y-73721569D01*
X146345625Y-74511781D01*
X146059711Y-74511781D01*
X146059709Y-73254107D01*
X146327206Y-73254107D01*
X146327206Y-73949599D01*
G37*
G36*
X148588919Y-75605480D02*
G01*
X148589193Y-75623446D01*
X148590016Y-75640858D01*
X148591386Y-75657716D01*
X148593304Y-75674021D01*
X148595771Y-75689772D01*
X148598786Y-75704970D01*
X148602349Y-75719614D01*
X148606460Y-75733704D01*
X148611119Y-75747241D01*
X148616327Y-75760224D01*
X148622083Y-75772653D01*
X148628386Y-75784529D01*
X148635238Y-75795851D01*
X148642638Y-75806619D01*
X148650587Y-75816834D01*
X148659083Y-75826495D01*
X148667933Y-75835502D01*
X148677117Y-75843927D01*
X148686636Y-75851771D01*
X148696489Y-75859034D01*
X148706676Y-75865716D01*
X148717198Y-75871817D01*
X148728054Y-75877337D01*
X148739244Y-75882276D01*
X148750769Y-75886634D01*
X148762629Y-75890411D01*
X148774822Y-75893606D01*
X148787350Y-75896221D01*
X148800213Y-75898255D01*
X148813409Y-75899707D01*
X148826941Y-75900579D01*
X148840806Y-75900870D01*
X148855192Y-75900568D01*
X148869233Y-75899664D01*
X148882929Y-75898156D01*
X148896279Y-75896046D01*
X148909284Y-75893332D01*
X148921944Y-75890016D01*
X148934258Y-75886097D01*
X148946227Y-75881574D01*
X148957850Y-75876449D01*
X148969129Y-75870721D01*
X148980062Y-75864390D01*
X148990649Y-75857456D01*
X149000892Y-75849919D01*
X149010788Y-75841779D01*
X149020340Y-75833036D01*
X149029546Y-75823690D01*
X149038298Y-75813669D01*
X149046484Y-75803079D01*
X149054106Y-75791918D01*
X149061164Y-75780188D01*
X149067656Y-75767887D01*
X149073585Y-75755017D01*
X149078948Y-75741576D01*
X149083747Y-75727565D01*
X149087982Y-75712984D01*
X149091652Y-75697833D01*
X149094757Y-75682112D01*
X149097298Y-75665821D01*
X149099274Y-75648960D01*
X149100685Y-75631528D01*
X149101532Y-75613527D01*
X149101814Y-75594956D01*
X149101814Y-74987340D01*
X149219689Y-74987340D01*
X149219689Y-75602674D01*
X149219327Y-75625206D01*
X149218242Y-75647195D01*
X149216433Y-75668641D01*
X149213900Y-75689545D01*
X149210644Y-75709906D01*
X149206665Y-75729725D01*
X149201962Y-75749000D01*
X149196535Y-75767734D01*
X149190385Y-75785924D01*
X149183511Y-75803572D01*
X149175914Y-75820677D01*
X149167593Y-75837239D01*
X149158548Y-75853259D01*
X149148780Y-75868736D01*
X149138289Y-75883670D01*
X149127073Y-75898062D01*
X149115069Y-75911656D01*
X149102384Y-75924373D01*
X149089020Y-75936214D01*
X149074977Y-75947177D01*
X149060253Y-75957263D01*
X149044850Y-75966472D01*
X149028768Y-75974804D01*
X149012005Y-75982258D01*
X148994563Y-75988836D01*
X148976441Y-75994537D01*
X148957639Y-75999361D01*
X148938158Y-76003307D01*
X148917997Y-76006377D01*
X148897156Y-76008570D01*
X148875636Y-76009885D01*
X148853436Y-76010324D01*
X148830202Y-76009866D01*
X148807687Y-76008493D01*
X148785890Y-76006204D01*
X148764810Y-76003001D01*
X148744449Y-75998881D01*
X148724806Y-75993847D01*
X148705881Y-75987896D01*
X148687674Y-75981031D01*
X148670186Y-75973250D01*
X148653415Y-75964553D01*
X148637362Y-75954942D01*
X148622028Y-75944414D01*
X148607411Y-75932971D01*
X148593513Y-75920613D01*
X148580332Y-75907340D01*
X148567870Y-75893151D01*
X148556145Y-75878287D01*
X148545177Y-75862991D01*
X148534965Y-75847262D01*
X148525509Y-75831100D01*
X148516810Y-75814504D01*
X148508867Y-75797476D01*
X148501681Y-75780015D01*
X148495251Y-75762120D01*
X148489578Y-75743793D01*
X148484661Y-75725033D01*
X148480500Y-75705839D01*
X148477096Y-75686212D01*
X148474449Y-75666153D01*
X148472557Y-75645660D01*
X148471423Y-75624734D01*
X148471045Y-75603376D01*
X148471045Y-74987340D01*
X148588919Y-74987340D01*
X148588919Y-75605480D01*
G37*
G36*
X148953277Y-69004603D02*
G01*
X150999410Y-69004603D01*
X150999410Y-69392533D01*
X148962604Y-69392533D01*
X148294231Y-70060940D01*
X148293895Y-70060604D01*
X148298816Y-70072631D01*
X148303428Y-70084765D01*
X148307730Y-70096999D01*
X148311722Y-70109327D01*
X148315401Y-70121743D01*
X148318766Y-70134242D01*
X148321817Y-70146818D01*
X148324552Y-70159464D01*
X148326969Y-70172174D01*
X148329069Y-70184943D01*
X148330848Y-70197764D01*
X148332307Y-70210632D01*
X148333444Y-70223540D01*
X148334258Y-70236483D01*
X148334747Y-70249455D01*
X148334911Y-70262449D01*
X148334911Y-70262450D01*
X148334275Y-70288098D01*
X148332380Y-70313572D01*
X148329242Y-70338830D01*
X148324880Y-70363830D01*
X148319311Y-70388528D01*
X148312553Y-70412882D01*
X148304622Y-70436850D01*
X148295538Y-70460390D01*
X148285317Y-70483459D01*
X148273976Y-70506014D01*
X148261534Y-70528014D01*
X148248008Y-70549416D01*
X148233415Y-70570177D01*
X148217774Y-70590256D01*
X148201101Y-70609610D01*
X148183414Y-70628195D01*
X148164828Y-70645882D01*
X148145474Y-70662555D01*
X148125396Y-70678196D01*
X148104634Y-70692789D01*
X148083232Y-70706315D01*
X148061233Y-70718757D01*
X148038677Y-70730097D01*
X148015608Y-70740318D01*
X147992068Y-70749403D01*
X147968100Y-70757333D01*
X147943746Y-70764091D01*
X147919048Y-70769660D01*
X147894049Y-70774022D01*
X147868791Y-70777160D01*
X147843317Y-70779055D01*
X147817668Y-70779691D01*
X147792020Y-70779055D01*
X147766545Y-70777160D01*
X147741288Y-70774022D01*
X147716289Y-70769660D01*
X147691591Y-70764091D01*
X147667237Y-70757333D01*
X147643269Y-70749403D01*
X147619729Y-70740318D01*
X147596660Y-70730097D01*
X147574105Y-70718757D01*
X147552105Y-70706315D01*
X147530703Y-70692789D01*
X147509941Y-70678196D01*
X147489863Y-70662555D01*
X147470509Y-70645882D01*
X147451924Y-70628195D01*
X147434237Y-70609610D01*
X147417564Y-70590256D01*
X147401922Y-70570177D01*
X147387330Y-70549416D01*
X147373804Y-70528014D01*
X147361362Y-70506014D01*
X147350021Y-70483459D01*
X147339800Y-70460390D01*
X147330715Y-70436850D01*
X147322785Y-70412882D01*
X147316026Y-70388528D01*
X147310457Y-70363830D01*
X147306095Y-70338831D01*
X147302958Y-70313573D01*
X147301062Y-70288098D01*
X147300427Y-70262450D01*
X147602151Y-70262450D01*
X147602416Y-70273137D01*
X147603206Y-70283751D01*
X147604513Y-70294275D01*
X147606330Y-70304691D01*
X147608651Y-70314982D01*
X147611467Y-70325130D01*
X147614771Y-70335116D01*
X147618556Y-70344925D01*
X147622815Y-70354537D01*
X147627540Y-70363935D01*
X147632725Y-70373101D01*
X147638361Y-70382019D01*
X147644441Y-70390669D01*
X147650958Y-70399035D01*
X147657905Y-70407099D01*
X147665275Y-70414843D01*
X147673019Y-70422213D01*
X147681083Y-70429160D01*
X147689449Y-70435677D01*
X147698100Y-70441757D01*
X147707017Y-70447393D01*
X147716184Y-70452578D01*
X147725582Y-70457303D01*
X147735194Y-70461562D01*
X147745002Y-70465347D01*
X147754988Y-70468651D01*
X147765136Y-70471467D01*
X147775427Y-70473788D01*
X147785843Y-70475605D01*
X147796367Y-70476912D01*
X147806981Y-70477702D01*
X147817668Y-70477967D01*
X147828355Y-70477702D01*
X147838970Y-70476912D01*
X147849494Y-70475605D01*
X147859910Y-70473788D01*
X147870201Y-70471467D01*
X147880349Y-70468651D01*
X147890335Y-70465347D01*
X147900143Y-70461562D01*
X147909755Y-70457303D01*
X147919154Y-70452578D01*
X147928320Y-70447393D01*
X147937238Y-70441757D01*
X147945888Y-70435677D01*
X147954254Y-70429160D01*
X147962318Y-70422213D01*
X147970062Y-70414843D01*
X147977432Y-70407099D01*
X147984379Y-70399035D01*
X147990896Y-70390669D01*
X147996976Y-70382019D01*
X148002612Y-70373101D01*
X148007796Y-70363935D01*
X148012522Y-70354537D01*
X148016781Y-70344925D01*
X148020566Y-70335116D01*
X148023870Y-70325130D01*
X148026686Y-70314982D01*
X148029007Y-70304691D01*
X148030824Y-70294275D01*
X148032132Y-70283751D01*
X148032921Y-70273137D01*
X148033186Y-70262450D01*
X148032921Y-70251763D01*
X148032132Y-70241148D01*
X148030824Y-70230624D01*
X148029007Y-70220208D01*
X148026686Y-70209917D01*
X148023870Y-70199769D01*
X148020566Y-70189783D01*
X148016781Y-70179975D01*
X148012522Y-70170363D01*
X148007796Y-70160964D01*
X148002612Y-70151798D01*
X147996976Y-70142880D01*
X147990896Y-70134230D01*
X147984379Y-70125864D01*
X147977432Y-70117800D01*
X147970062Y-70110056D01*
X147962318Y-70102686D01*
X147954254Y-70095739D01*
X147945888Y-70089222D01*
X147937238Y-70083142D01*
X147928320Y-70077506D01*
X147919154Y-70072322D01*
X147909755Y-70067597D01*
X147900143Y-70063338D01*
X147890335Y-70059553D01*
X147880349Y-70056248D01*
X147870201Y-70053432D01*
X147859910Y-70051112D01*
X147849494Y-70049295D01*
X147838970Y-70047987D01*
X147828355Y-70047198D01*
X147817668Y-70046933D01*
X147806981Y-70047198D01*
X147796367Y-70047987D01*
X147785843Y-70049295D01*
X147775427Y-70051112D01*
X147765136Y-70053432D01*
X147754988Y-70056248D01*
X147745002Y-70059553D01*
X147735194Y-70063338D01*
X147725582Y-70067597D01*
X147716184Y-70072322D01*
X147707017Y-70077506D01*
X147698100Y-70083142D01*
X147689449Y-70089222D01*
X147681083Y-70095739D01*
X147673019Y-70102686D01*
X147665275Y-70110056D01*
X147657905Y-70117800D01*
X147650958Y-70125864D01*
X147644441Y-70134230D01*
X147638361Y-70142880D01*
X147632725Y-70151798D01*
X147627540Y-70160964D01*
X147622815Y-70170363D01*
X147618556Y-70179975D01*
X147614771Y-70189783D01*
X147611467Y-70199769D01*
X147608651Y-70209917D01*
X147606330Y-70220208D01*
X147604513Y-70230624D01*
X147603206Y-70241148D01*
X147602416Y-70251763D01*
X147602151Y-70262450D01*
X147300427Y-70262450D01*
X147301062Y-70236801D01*
X147302958Y-70211327D01*
X147306095Y-70186069D01*
X147310457Y-70161070D01*
X147316026Y-70136372D01*
X147322785Y-70112018D01*
X147330715Y-70088050D01*
X147339800Y-70064510D01*
X147350021Y-70041441D01*
X147361362Y-70018886D01*
X147373804Y-69996886D01*
X147387330Y-69975484D01*
X147401922Y-69954723D01*
X147417564Y-69934644D01*
X147434237Y-69915291D01*
X147451924Y-69896705D01*
X147470509Y-69879018D01*
X147489863Y-69862345D01*
X147509941Y-69846704D01*
X147530703Y-69832111D01*
X147552105Y-69818585D01*
X147574104Y-69806143D01*
X147596660Y-69794802D01*
X147619729Y-69784581D01*
X147643268Y-69775496D01*
X147667236Y-69767566D01*
X147691590Y-69760808D01*
X147716288Y-69755239D01*
X147741287Y-69750877D01*
X147766545Y-69747739D01*
X147792020Y-69745844D01*
X147817668Y-69745208D01*
X147830701Y-69745372D01*
X147843712Y-69745864D01*
X147856693Y-69746682D01*
X147869640Y-69747826D01*
X147882546Y-69749293D01*
X147895405Y-69751083D01*
X147908211Y-69753194D01*
X147920958Y-69755626D01*
X147933640Y-69758376D01*
X147946251Y-69761445D01*
X147958784Y-69764830D01*
X147971235Y-69768530D01*
X147983597Y-69772544D01*
X147995863Y-69776872D01*
X148008028Y-69781510D01*
X148020086Y-69786460D01*
X148603296Y-69203250D01*
X147991867Y-68591821D01*
X147467284Y-68591821D01*
X147459553Y-68609939D01*
X147451190Y-68627650D01*
X147442212Y-68644944D01*
X147432634Y-68661809D01*
X147422473Y-68678235D01*
X147411746Y-68694209D01*
X147400470Y-68709722D01*
X147388659Y-68724762D01*
X147376332Y-68739317D01*
X147363503Y-68753378D01*
X147350191Y-68766933D01*
X147336410Y-68779970D01*
X147322178Y-68792480D01*
X147307511Y-68804450D01*
X147292425Y-68815870D01*
X147276937Y-68826728D01*
X147261063Y-68837015D01*
X147244819Y-68846717D01*
X147228222Y-68855825D01*
X147211289Y-68864328D01*
X147194035Y-68872214D01*
X147176477Y-68879472D01*
X147158632Y-68886091D01*
X147140516Y-68892061D01*
X147122144Y-68897369D01*
X147103535Y-68902006D01*
X147084704Y-68905960D01*
X147065667Y-68909220D01*
X147046441Y-68911774D01*
X147027042Y-68913613D01*
X147007487Y-68914724D01*
X146987792Y-68915097D01*
X146962144Y-68914461D01*
X146936669Y-68912566D01*
X146911412Y-68909428D01*
X146886413Y-68905066D01*
X146861715Y-68899497D01*
X146837361Y-68892739D01*
X146813393Y-68884809D01*
X146789853Y-68875724D01*
X146766784Y-68865503D01*
X146744229Y-68854162D01*
X146722229Y-68841720D01*
X146700827Y-68828194D01*
X146680065Y-68813602D01*
X146659987Y-68797960D01*
X146640633Y-68781287D01*
X146622048Y-68763600D01*
X146604361Y-68745015D01*
X146587688Y-68725661D01*
X146572046Y-68705583D01*
X146557453Y-68684821D01*
X146543927Y-68663419D01*
X146531485Y-68641419D01*
X146520145Y-68618864D01*
X146509923Y-68595795D01*
X146500839Y-68572255D01*
X146492909Y-68548287D01*
X146486150Y-68523933D01*
X146480581Y-68499235D01*
X146476219Y-68474236D01*
X146473082Y-68448978D01*
X146471186Y-68423504D01*
X146470551Y-68397855D01*
X146772275Y-68397855D01*
X146772540Y-68408542D01*
X146773330Y-68419157D01*
X146774637Y-68429681D01*
X146776455Y-68440097D01*
X146778775Y-68450388D01*
X146781591Y-68460536D01*
X146784895Y-68470522D01*
X146788681Y-68480330D01*
X146792940Y-68489942D01*
X146797665Y-68499341D01*
X146802849Y-68508507D01*
X146808485Y-68517425D01*
X146814565Y-68526075D01*
X146821083Y-68534441D01*
X146828029Y-68542505D01*
X146835399Y-68550249D01*
X146843143Y-68557619D01*
X146851207Y-68564566D01*
X146859573Y-68571083D01*
X146868224Y-68577163D01*
X146877141Y-68582799D01*
X146886308Y-68587984D01*
X146895706Y-68592709D01*
X146905318Y-68596968D01*
X146915126Y-68600753D01*
X146925113Y-68604057D01*
X146935260Y-68606873D01*
X146945551Y-68609194D01*
X146955967Y-68611011D01*
X146966491Y-68612318D01*
X146977105Y-68613108D01*
X146987792Y-68613373D01*
X146998479Y-68613108D01*
X147009093Y-68612318D01*
X147019618Y-68611011D01*
X147030034Y-68609194D01*
X147040325Y-68606873D01*
X147050472Y-68604057D01*
X147060459Y-68600753D01*
X147070267Y-68596968D01*
X147079879Y-68592709D01*
X147089277Y-68587984D01*
X147098444Y-68582799D01*
X147107361Y-68577163D01*
X147116012Y-68571083D01*
X147124378Y-68564566D01*
X147132442Y-68557619D01*
X147140186Y-68550249D01*
X147147555Y-68542505D01*
X147154502Y-68534441D01*
X147161019Y-68526075D01*
X147167099Y-68517425D01*
X147172735Y-68508507D01*
X147177920Y-68499341D01*
X147182645Y-68489942D01*
X147186904Y-68480330D01*
X147190689Y-68470522D01*
X147193993Y-68460536D01*
X147196809Y-68450388D01*
X147199130Y-68440097D01*
X147200947Y-68429681D01*
X147202255Y-68419157D01*
X147203044Y-68408542D01*
X147203309Y-68397855D01*
X147203044Y-68387169D01*
X147202255Y-68376554D01*
X147200947Y-68366030D01*
X147199130Y-68355614D01*
X147196809Y-68345323D01*
X147193993Y-68335176D01*
X147190689Y-68325189D01*
X147186904Y-68315381D01*
X147182645Y-68305769D01*
X147177920Y-68296371D01*
X147172735Y-68287204D01*
X147167099Y-68278287D01*
X147161019Y-68269636D01*
X147154502Y-68261270D01*
X147147555Y-68253206D01*
X147140186Y-68245462D01*
X147132442Y-68238092D01*
X147124378Y-68231145D01*
X147116012Y-68224628D01*
X147107361Y-68218548D01*
X147098444Y-68212912D01*
X147089277Y-68207728D01*
X147079879Y-68203002D01*
X147070267Y-68198744D01*
X147060459Y-68194958D01*
X147050472Y-68191654D01*
X147040325Y-68188838D01*
X147030034Y-68186518D01*
X147019618Y-68184700D01*
X147009093Y-68183393D01*
X146998479Y-68182603D01*
X146987792Y-68182338D01*
X146977105Y-68182603D01*
X146966491Y-68183393D01*
X146955967Y-68184700D01*
X146945551Y-68186518D01*
X146935260Y-68188838D01*
X146925113Y-68191654D01*
X146915126Y-68194958D01*
X146905318Y-68198744D01*
X146895706Y-68203002D01*
X146886308Y-68207728D01*
X146877141Y-68212912D01*
X146868224Y-68218548D01*
X146859573Y-68224628D01*
X146851207Y-68231145D01*
X146843143Y-68238092D01*
X146835399Y-68245462D01*
X146828029Y-68253206D01*
X146821083Y-68261270D01*
X146814565Y-68269636D01*
X146808485Y-68278287D01*
X146802849Y-68287204D01*
X146797665Y-68296371D01*
X146792940Y-68305769D01*
X146788681Y-68315381D01*
X146784895Y-68325189D01*
X146781591Y-68335176D01*
X146778775Y-68345323D01*
X146776455Y-68355614D01*
X146774637Y-68366030D01*
X146773330Y-68376554D01*
X146772540Y-68387169D01*
X146772275Y-68397855D01*
X146470551Y-68397855D01*
X146471186Y-68372207D01*
X146473082Y-68346732D01*
X146476219Y-68321475D01*
X146480581Y-68296475D01*
X146486150Y-68271778D01*
X146492909Y-68247424D01*
X146500839Y-68223455D01*
X146509923Y-68199916D01*
X146520145Y-68176847D01*
X146531485Y-68154292D01*
X146543927Y-68132292D01*
X146557453Y-68110890D01*
X146572046Y-68090128D01*
X146587688Y-68070050D01*
X146604361Y-68050697D01*
X146622048Y-68032111D01*
X146640633Y-68014424D01*
X146659987Y-67997751D01*
X146680065Y-67982110D01*
X146700827Y-67967517D01*
X146722229Y-67953991D01*
X146744229Y-67941549D01*
X146766784Y-67930208D01*
X146789853Y-67919987D01*
X146813393Y-67910902D01*
X146837361Y-67902972D01*
X146861715Y-67896214D01*
X146886413Y-67890645D01*
X146911412Y-67886283D01*
X146936669Y-67883145D01*
X146962144Y-67881250D01*
X146987792Y-67880614D01*
X147027042Y-67882099D01*
X147065667Y-67886492D01*
X147103535Y-67893705D01*
X147140516Y-67903651D01*
X147176477Y-67916240D01*
X147211289Y-67931384D01*
X147244819Y-67948994D01*
X147276937Y-67968983D01*
X147307511Y-67991261D01*
X147336410Y-68015741D01*
X147363503Y-68042333D01*
X147388659Y-68070950D01*
X147411746Y-68101502D01*
X147432634Y-68133902D01*
X147451190Y-68168061D01*
X147467284Y-68203890D01*
X148152495Y-68203890D01*
X148152512Y-68203873D01*
X148152521Y-68203864D01*
X148152530Y-68203855D01*
X148346530Y-68397855D01*
X148953277Y-69004603D01*
G37*
G36*
X146692400Y-75993485D02*
G01*
X146574525Y-75993485D01*
X146574525Y-75582326D01*
X146458755Y-75582326D01*
X146452937Y-75582397D01*
X146447233Y-75582611D01*
X146441645Y-75582968D01*
X146436171Y-75583466D01*
X146430813Y-75584108D01*
X146425570Y-75584892D01*
X146420442Y-75585818D01*
X146415429Y-75586887D01*
X146410532Y-75588099D01*
X146405749Y-75589453D01*
X146401082Y-75590949D01*
X146396529Y-75592588D01*
X146392092Y-75594370D01*
X146387770Y-75596294D01*
X146383563Y-75598360D01*
X146379471Y-75600569D01*
X146375266Y-75603126D01*
X146370898Y-75606237D01*
X146366365Y-75609901D01*
X146361667Y-75614120D01*
X146356805Y-75618891D01*
X146351778Y-75624217D01*
X146346587Y-75630095D01*
X146341232Y-75636528D01*
X146335712Y-75643514D01*
X146330027Y-75651054D01*
X146318165Y-75667795D01*
X146305646Y-75686750D01*
X146292468Y-75707919D01*
X146119865Y-75993485D01*
X145979539Y-75993485D01*
X146187923Y-75655296D01*
X146194644Y-75644399D01*
X146201123Y-75634159D01*
X146207361Y-75624577D01*
X146213357Y-75615653D01*
X146219113Y-75607387D01*
X146224627Y-75599779D01*
X146229901Y-75592828D01*
X146234933Y-75586536D01*
X146237421Y-75583485D01*
X146239976Y-75580473D01*
X146242596Y-75577499D01*
X146245282Y-75574564D01*
X146248033Y-75571667D01*
X146250851Y-75568808D01*
X146253734Y-75565988D01*
X146256683Y-75563206D01*
X146259698Y-75560463D01*
X146262779Y-75557758D01*
X146265925Y-75555091D01*
X146269138Y-75552463D01*
X146272416Y-75549873D01*
X146275759Y-75547321D01*
X146279169Y-75544808D01*
X146282644Y-75542333D01*
X146282644Y-75539526D01*
X146271645Y-75535415D01*
X146260926Y-75530975D01*
X146250487Y-75526206D01*
X146240327Y-75521109D01*
X146230446Y-75515682D01*
X146220845Y-75509926D01*
X146211524Y-75503842D01*
X146202482Y-75497429D01*
X146193720Y-75490686D01*
X146185237Y-75483615D01*
X146177034Y-75476215D01*
X146169111Y-75468486D01*
X146161467Y-75460428D01*
X146154102Y-75452042D01*
X146147017Y-75443326D01*
X146140212Y-75434282D01*
X146133670Y-75424892D01*
X146127550Y-75415315D01*
X146121851Y-75405553D01*
X146116576Y-75395604D01*
X146111722Y-75385468D01*
X146107290Y-75375147D01*
X146103280Y-75364639D01*
X146099693Y-75353944D01*
X146096527Y-75343063D01*
X146093784Y-75331996D01*
X146091462Y-75320742D01*
X146089563Y-75309302D01*
X146088086Y-75297676D01*
X146087030Y-75285863D01*
X146086397Y-75273864D01*
X146086356Y-75271502D01*
X146209676Y-75271502D01*
X146209906Y-75282684D01*
X146210596Y-75293603D01*
X146211748Y-75304260D01*
X146213359Y-75314653D01*
X146215431Y-75324783D01*
X146217964Y-75334649D01*
X146220957Y-75344253D01*
X146224410Y-75353594D01*
X146228324Y-75362671D01*
X146232698Y-75371485D01*
X146237533Y-75380037D01*
X146242828Y-75388325D01*
X146248583Y-75396349D01*
X146254799Y-75404111D01*
X146261476Y-75411610D01*
X146268613Y-75418845D01*
X146276007Y-75425727D01*
X146283632Y-75432166D01*
X146291487Y-75438160D01*
X146299573Y-75443710D01*
X146307888Y-75448816D01*
X146316434Y-75453478D01*
X146325210Y-75457696D01*
X146334216Y-75461470D01*
X146343452Y-75464800D01*
X146352919Y-75467686D01*
X146362616Y-75470128D01*
X146372543Y-75472126D01*
X146382700Y-75473680D01*
X146393087Y-75474790D01*
X146403705Y-75475456D01*
X146414553Y-75475678D01*
X146574525Y-75475678D01*
X146574525Y-75093989D01*
X146407536Y-75093989D01*
X146395699Y-75094178D01*
X146384218Y-75094745D01*
X146373093Y-75095691D01*
X146362324Y-75097015D01*
X146351912Y-75098717D01*
X146341856Y-75100797D01*
X146332157Y-75103255D01*
X146322814Y-75106092D01*
X146313827Y-75109307D01*
X146305196Y-75112900D01*
X146296922Y-75116871D01*
X146289004Y-75121221D01*
X146281442Y-75125949D01*
X146274236Y-75131055D01*
X146267387Y-75136539D01*
X146260895Y-75142401D01*
X146254692Y-75148579D01*
X146248890Y-75155009D01*
X146243488Y-75161691D01*
X146238486Y-75168625D01*
X146233884Y-75175811D01*
X146229683Y-75183249D01*
X146225881Y-75190940D01*
X146222480Y-75198883D01*
X146219479Y-75207078D01*
X146216878Y-75215525D01*
X146214677Y-75224224D01*
X146212877Y-75233175D01*
X146211476Y-75242378D01*
X146210476Y-75251834D01*
X146209876Y-75261542D01*
X146209676Y-75271502D01*
X146086356Y-75271502D01*
X146086186Y-75261679D01*
X146086534Y-75245010D01*
X146087579Y-75228856D01*
X146089319Y-75213217D01*
X146091756Y-75198093D01*
X146094888Y-75183485D01*
X146098717Y-75169392D01*
X146103242Y-75155815D01*
X146108463Y-75142752D01*
X146114381Y-75130205D01*
X146120994Y-75118173D01*
X146128304Y-75106656D01*
X146136309Y-75095655D01*
X146145011Y-75085169D01*
X146154409Y-75075198D01*
X146164503Y-75065742D01*
X146175294Y-75056802D01*
X146186608Y-75048391D01*
X146198272Y-75040522D01*
X146210288Y-75033196D01*
X146222654Y-75026412D01*
X146235371Y-75020172D01*
X146248439Y-75014474D01*
X146261858Y-75009318D01*
X146275628Y-75004706D01*
X146289748Y-75000636D01*
X146304219Y-74997108D01*
X146319042Y-74994124D01*
X146334214Y-74991682D01*
X146349738Y-74989782D01*
X146365613Y-74988426D01*
X146381838Y-74987612D01*
X146398414Y-74987340D01*
X146692400Y-74987340D01*
X146692400Y-75475678D01*
X146692400Y-75993485D01*
G37*
G36*
X151887986Y-73899608D02*
G01*
X151887321Y-73934494D01*
X151885327Y-73968551D01*
X151882004Y-74001779D01*
X151877351Y-74034178D01*
X151871370Y-74065748D01*
X151864059Y-74096489D01*
X151855419Y-74126401D01*
X151845449Y-74155484D01*
X151834150Y-74183737D01*
X151821522Y-74211162D01*
X151807565Y-74237757D01*
X151792279Y-74263524D01*
X151775663Y-74288461D01*
X151757718Y-74312569D01*
X151738443Y-74335849D01*
X151717840Y-74358299D01*
X151696181Y-74379539D01*
X151673741Y-74399410D01*
X151650520Y-74417910D01*
X151626518Y-74435040D01*
X151601735Y-74450799D01*
X151576171Y-74465188D01*
X151549825Y-74478207D01*
X151522699Y-74489855D01*
X151494791Y-74500133D01*
X151466102Y-74509040D01*
X151436632Y-74516577D01*
X151406381Y-74522744D01*
X151375349Y-74527540D01*
X151343536Y-74530966D01*
X151310942Y-74533022D01*
X151277566Y-74533707D01*
X151243334Y-74532998D01*
X151209925Y-74530870D01*
X151177337Y-74527324D01*
X151145572Y-74522360D01*
X151114629Y-74515978D01*
X151084508Y-74508177D01*
X151055210Y-74498958D01*
X151026733Y-74488320D01*
X150999079Y-74476264D01*
X150972247Y-74462790D01*
X150946238Y-74447897D01*
X150921050Y-74431586D01*
X150896685Y-74413857D01*
X150873142Y-74394710D01*
X150850421Y-74374144D01*
X150828523Y-74352160D01*
X150807600Y-74329018D01*
X150788028Y-74304978D01*
X150769805Y-74280040D01*
X150752933Y-74254205D01*
X150737410Y-74227473D01*
X150723237Y-74199843D01*
X150710413Y-74171315D01*
X150698940Y-74141890D01*
X150688816Y-74111567D01*
X150680042Y-74080346D01*
X150672618Y-74048228D01*
X150666544Y-74015212D01*
X150661820Y-73981299D01*
X150658445Y-73946488D01*
X150656420Y-73910780D01*
X150656036Y-73889961D01*
X150953939Y-73889961D01*
X150954275Y-73913103D01*
X150955282Y-73935608D01*
X150956961Y-73957475D01*
X150959311Y-73978706D01*
X150962333Y-73999299D01*
X150966026Y-74019255D01*
X150970391Y-74038574D01*
X150975427Y-74057256D01*
X150981135Y-74075300D01*
X150987514Y-74092707D01*
X150994564Y-74109477D01*
X151002286Y-74125610D01*
X151010680Y-74141105D01*
X151019745Y-74155964D01*
X151029481Y-74170185D01*
X151039889Y-74183769D01*
X151050869Y-74196513D01*
X151062322Y-74208435D01*
X151074248Y-74219535D01*
X151086646Y-74229813D01*
X151099517Y-74239269D01*
X151112861Y-74247902D01*
X151126678Y-74255713D01*
X151140968Y-74262702D01*
X151155730Y-74268869D01*
X151170965Y-74274213D01*
X151186673Y-74278735D01*
X151202854Y-74282435D01*
X151219507Y-74285313D01*
X151236634Y-74287369D01*
X151254233Y-74288602D01*
X151272304Y-74289013D01*
X151289852Y-74288588D01*
X151306975Y-74287314D01*
X151323673Y-74285190D01*
X151339946Y-74282216D01*
X151355794Y-74278393D01*
X151371218Y-74273720D01*
X151386217Y-74268197D01*
X151400791Y-74261825D01*
X151414940Y-74254603D01*
X151428664Y-74246532D01*
X151441963Y-74237611D01*
X151454838Y-74227840D01*
X151467288Y-74217220D01*
X151479313Y-74205750D01*
X151490913Y-74193430D01*
X151502089Y-74180261D01*
X151512709Y-74166362D01*
X151522644Y-74151853D01*
X151531894Y-74136734D01*
X151540459Y-74121005D01*
X151548339Y-74104667D01*
X151555533Y-74087719D01*
X151562042Y-74070161D01*
X151567867Y-74051993D01*
X151573005Y-74033216D01*
X151577459Y-74013828D01*
X151581228Y-73993831D01*
X151584311Y-73973224D01*
X151586709Y-73952008D01*
X151588422Y-73930181D01*
X151589450Y-73907745D01*
X151589793Y-73884698D01*
X151589450Y-73861960D01*
X151588422Y-73839791D01*
X151586709Y-73818191D01*
X151584311Y-73797159D01*
X151581228Y-73776696D01*
X151577459Y-73756801D01*
X151573005Y-73737476D01*
X151567867Y-73718719D01*
X151562042Y-73700531D01*
X151555533Y-73682911D01*
X151548339Y-73665860D01*
X151540459Y-73649378D01*
X151531894Y-73633465D01*
X151522644Y-73618120D01*
X151512709Y-73603344D01*
X151502089Y-73589137D01*
X151490886Y-73575542D01*
X151479203Y-73562825D01*
X151467041Y-73550985D01*
X151454400Y-73540022D01*
X151441278Y-73529936D01*
X151427677Y-73520727D01*
X151413597Y-73512395D01*
X151399036Y-73504940D01*
X151383997Y-73498362D01*
X151368477Y-73492662D01*
X151352478Y-73487838D01*
X151335999Y-73483891D01*
X151319041Y-73480821D01*
X151301603Y-73478629D01*
X151283685Y-73477313D01*
X151265288Y-73476875D01*
X151265288Y-73476876D01*
X151247439Y-73477301D01*
X151230069Y-73478575D01*
X151213179Y-73480699D01*
X151196769Y-73483673D01*
X151180839Y-73487496D01*
X151165388Y-73492169D01*
X151150416Y-73497692D01*
X151135925Y-73504064D01*
X151121913Y-73511286D01*
X151108380Y-73519357D01*
X151095328Y-73528279D01*
X151082754Y-73538049D01*
X151070661Y-73548670D01*
X151059047Y-73560140D01*
X151047913Y-73572460D01*
X151037258Y-73585629D01*
X151027169Y-73599562D01*
X151017730Y-73614174D01*
X151008943Y-73629463D01*
X151000806Y-73645432D01*
X150993320Y-73662078D01*
X150986486Y-73679403D01*
X150980302Y-73697406D01*
X150974769Y-73716088D01*
X150969887Y-73735448D01*
X150965656Y-73755486D01*
X150962076Y-73776203D01*
X150959147Y-73797598D01*
X150956868Y-73819671D01*
X150955241Y-73842422D01*
X150954265Y-73865852D01*
X150953939Y-73889961D01*
X150656036Y-73889961D01*
X150655745Y-73874174D01*
X150656396Y-73838544D01*
X150658349Y-73803791D01*
X150661604Y-73769916D01*
X150666160Y-73736917D01*
X150672019Y-73704796D01*
X150679179Y-73673551D01*
X150687641Y-73643184D01*
X150697405Y-73613693D01*
X150708471Y-73585080D01*
X150720838Y-73557343D01*
X150734508Y-73530484D01*
X150749479Y-73504502D01*
X150765752Y-73479397D01*
X150783328Y-73455168D01*
X150802205Y-73431817D01*
X150822383Y-73409343D01*
X150843508Y-73387996D01*
X150865440Y-73368026D01*
X150888182Y-73349434D01*
X150911732Y-73332219D01*
X150936090Y-73316381D01*
X150961257Y-73301920D01*
X150987232Y-73288836D01*
X151014016Y-73277130D01*
X151041609Y-73266800D01*
X151070010Y-73257848D01*
X151099219Y-73250274D01*
X151129237Y-73244076D01*
X151160064Y-73239256D01*
X151191699Y-73235813D01*
X151224143Y-73233747D01*
X151257395Y-73233058D01*
X151292586Y-73233778D01*
X151326900Y-73235936D01*
X151360337Y-73239533D01*
X151392897Y-73244570D01*
X151424580Y-73251045D01*
X151455386Y-73258959D01*
X151485315Y-73268311D01*
X151514367Y-73279103D01*
X151542542Y-73291334D01*
X151569840Y-73305003D01*
X151596260Y-73320111D01*
X151621804Y-73336659D01*
X151646471Y-73354645D01*
X151670260Y-73374070D01*
X151693173Y-73394934D01*
X151715209Y-73417237D01*
X151736131Y-73440704D01*
X151755703Y-73465063D01*
X151773926Y-73490312D01*
X151790798Y-73516452D01*
X151806321Y-73543482D01*
X151820494Y-73571404D01*
X151833318Y-73600216D01*
X151844791Y-73629919D01*
X151854915Y-73660512D01*
X151863689Y-73691997D01*
X151871113Y-73724372D01*
X151877187Y-73757638D01*
X151881911Y-73791794D01*
X151885286Y-73826841D01*
X151887311Y-73862779D01*
X151887712Y-73884698D01*
X151887986Y-73899608D01*
G37*
G36*
X147013922Y-66159324D02*
G01*
X147009529Y-66197948D01*
X147002316Y-66235816D01*
X146992371Y-66272796D01*
X146979782Y-66308757D01*
X146964638Y-66343569D01*
X146947028Y-66377099D01*
X146927039Y-66409217D01*
X146904761Y-66439791D01*
X146880282Y-66468690D01*
X146853689Y-66495783D01*
X146825073Y-66520939D01*
X146794521Y-66544026D01*
X146762121Y-66564914D01*
X146727962Y-66583471D01*
X146692133Y-66599565D01*
X146692129Y-67007433D01*
X146891585Y-67206887D01*
X148799854Y-67206887D01*
X148799958Y-67206818D01*
X149356834Y-67763728D01*
X151265135Y-67763728D01*
X151265135Y-68151659D01*
X149196170Y-68151659D01*
X148639328Y-67594817D01*
X146730890Y-67594817D01*
X146730890Y-67594748D01*
X146730885Y-67594752D01*
X146730880Y-67594756D01*
X146730872Y-67594765D01*
X146730854Y-67594782D01*
X146304198Y-67168092D01*
X146304198Y-66599564D01*
X146286080Y-66591833D01*
X146268368Y-66583470D01*
X146251075Y-66574491D01*
X146234210Y-66564914D01*
X146217784Y-66554753D01*
X146201810Y-66544026D01*
X146186297Y-66532749D01*
X146171257Y-66520939D01*
X146156701Y-66508611D01*
X146142641Y-66495783D01*
X146129086Y-66482471D01*
X146116048Y-66468690D01*
X146103539Y-66454458D01*
X146091569Y-66439791D01*
X146080149Y-66424705D01*
X146069290Y-66409217D01*
X146059004Y-66393343D01*
X146049302Y-66377099D01*
X146040194Y-66360503D01*
X146031691Y-66343569D01*
X146023805Y-66326315D01*
X146016547Y-66308757D01*
X146009928Y-66290912D01*
X146003958Y-66272796D01*
X145998650Y-66254425D01*
X145994013Y-66235815D01*
X145990059Y-66216984D01*
X145986800Y-66197947D01*
X145984245Y-66178721D01*
X145982407Y-66159322D01*
X145981295Y-66139767D01*
X145980922Y-66120074D01*
X146282647Y-66120074D01*
X146282912Y-66130761D01*
X146283702Y-66141375D01*
X146285009Y-66151900D01*
X146286827Y-66162316D01*
X146289147Y-66172607D01*
X146291963Y-66182754D01*
X146295268Y-66192741D01*
X146299053Y-66202549D01*
X146303312Y-66212161D01*
X146308037Y-66221559D01*
X146313221Y-66230726D01*
X146318857Y-66239643D01*
X146324937Y-66248294D01*
X146331455Y-66256660D01*
X146338402Y-66264724D01*
X146345771Y-66272468D01*
X146353515Y-66279837D01*
X146361579Y-66286785D01*
X146369945Y-66293302D01*
X146378595Y-66299382D01*
X146387513Y-66305018D01*
X146396679Y-66310202D01*
X146406078Y-66314928D01*
X146415690Y-66319186D01*
X146425498Y-66322972D01*
X146435484Y-66326276D01*
X146445632Y-66329092D01*
X146455923Y-66331412D01*
X146466339Y-66333230D01*
X146476863Y-66334537D01*
X146487478Y-66335327D01*
X146498164Y-66335592D01*
X146508851Y-66335327D01*
X146519466Y-66334537D01*
X146529990Y-66333230D01*
X146540406Y-66331412D01*
X146550697Y-66329092D01*
X146560844Y-66326276D01*
X146570831Y-66322972D01*
X146580639Y-66319186D01*
X146590251Y-66314928D01*
X146599649Y-66310202D01*
X146608816Y-66305018D01*
X146617733Y-66299382D01*
X146626384Y-66293302D01*
X146634750Y-66286785D01*
X146642814Y-66279837D01*
X146650558Y-66272468D01*
X146657927Y-66264724D01*
X146664874Y-66256660D01*
X146671391Y-66248294D01*
X146677472Y-66239643D01*
X146683107Y-66230726D01*
X146688292Y-66221559D01*
X146693017Y-66212161D01*
X146697276Y-66202549D01*
X146701061Y-66192741D01*
X146704365Y-66182754D01*
X146707181Y-66172607D01*
X146709502Y-66162316D01*
X146711319Y-66151900D01*
X146712627Y-66141375D01*
X146713417Y-66130761D01*
X146713681Y-66120074D01*
X146713417Y-66109387D01*
X146712627Y-66098773D01*
X146711319Y-66088249D01*
X146709502Y-66077833D01*
X146707181Y-66067542D01*
X146704365Y-66057394D01*
X146701061Y-66047408D01*
X146697276Y-66037600D01*
X146693017Y-66027988D01*
X146688292Y-66018590D01*
X146683107Y-66009423D01*
X146677472Y-66000506D01*
X146671391Y-65991855D01*
X146664874Y-65983489D01*
X146657927Y-65975425D01*
X146650558Y-65967681D01*
X146642814Y-65960311D01*
X146634750Y-65953364D01*
X146626384Y-65946847D01*
X146617733Y-65940767D01*
X146608816Y-65935131D01*
X146599649Y-65929947D01*
X146590251Y-65925221D01*
X146580639Y-65920963D01*
X146570831Y-65917177D01*
X146560844Y-65913873D01*
X146550697Y-65911057D01*
X146540406Y-65908737D01*
X146529990Y-65906919D01*
X146519466Y-65905612D01*
X146508851Y-65904822D01*
X146498164Y-65904557D01*
X146487478Y-65904822D01*
X146476863Y-65905612D01*
X146466339Y-65906919D01*
X146455923Y-65908737D01*
X146445632Y-65911057D01*
X146435484Y-65913873D01*
X146425498Y-65917177D01*
X146415690Y-65920963D01*
X146406078Y-65925221D01*
X146396679Y-65929947D01*
X146387513Y-65935131D01*
X146378595Y-65940767D01*
X146369945Y-65946847D01*
X146361579Y-65953364D01*
X146353515Y-65960311D01*
X146345771Y-65967681D01*
X146338402Y-65975425D01*
X146331455Y-65983489D01*
X146324937Y-65991855D01*
X146318857Y-66000506D01*
X146313221Y-66009423D01*
X146308037Y-66018590D01*
X146303312Y-66027988D01*
X146299053Y-66037600D01*
X146295268Y-66047408D01*
X146291963Y-66057394D01*
X146289147Y-66067542D01*
X146286827Y-66077833D01*
X146285009Y-66088249D01*
X146283702Y-66098773D01*
X146282912Y-66109387D01*
X146282647Y-66120074D01*
X145980922Y-66120074D01*
X145980922Y-66120072D01*
X145981558Y-66094424D01*
X145983453Y-66068949D01*
X145986591Y-66043691D01*
X145990953Y-66018692D01*
X145996522Y-65993995D01*
X146003280Y-65969641D01*
X146011211Y-65945672D01*
X146020295Y-65922133D01*
X146030516Y-65899064D01*
X146041857Y-65876509D01*
X146054299Y-65854509D01*
X146067825Y-65833107D01*
X146082418Y-65812345D01*
X146098059Y-65792267D01*
X146114732Y-65772913D01*
X146132419Y-65754328D01*
X146151005Y-65736641D01*
X146170358Y-65719968D01*
X146190437Y-65704326D01*
X146211198Y-65689734D01*
X146232600Y-65676208D01*
X146254599Y-65663765D01*
X146277155Y-65652425D01*
X146300224Y-65642204D01*
X146323763Y-65633119D01*
X146347731Y-65625189D01*
X146372085Y-65618430D01*
X146396783Y-65612861D01*
X146421782Y-65608499D01*
X146447040Y-65605362D01*
X146472515Y-65603467D01*
X146498163Y-65602831D01*
X146498164Y-65602831D01*
X146498164Y-65602832D01*
X146498164Y-65602833D01*
X146523813Y-65603469D01*
X146549287Y-65605364D01*
X146574545Y-65608502D01*
X146599544Y-65612864D01*
X146624242Y-65618433D01*
X146648596Y-65625191D01*
X146672564Y-65633121D01*
X146696104Y-65642206D01*
X146719172Y-65652427D01*
X146741728Y-65663768D01*
X146763728Y-65676210D01*
X146785130Y-65689736D01*
X146805891Y-65704329D01*
X146825970Y-65719970D01*
X146845323Y-65736643D01*
X146863909Y-65754330D01*
X146881596Y-65772915D01*
X146898269Y-65792269D01*
X146913910Y-65812347D01*
X146928503Y-65833109D01*
X146942029Y-65854511D01*
X146954471Y-65876511D01*
X146965812Y-65899066D01*
X146976033Y-65922135D01*
X146985118Y-65945674D01*
X146993048Y-65969642D01*
X146999806Y-65993997D01*
X147005375Y-66018694D01*
X147009737Y-66043693D01*
X147012875Y-66068951D01*
X147014770Y-66094426D01*
X147015406Y-66120074D01*
X147013922Y-66159324D01*
G37*
G36*
X152812717Y-68252381D02*
G01*
X152052413Y-68460221D01*
X152035909Y-68545384D01*
X152017700Y-68630172D01*
X151997793Y-68714560D01*
X151976195Y-68798523D01*
X151952913Y-68882034D01*
X151927953Y-68965068D01*
X151901323Y-69047600D01*
X151873029Y-69129603D01*
X152427582Y-69689746D01*
X151858111Y-70676108D01*
X151095752Y-70475913D01*
X151038879Y-70541416D01*
X150980717Y-70605743D01*
X150921285Y-70668874D01*
X150860602Y-70730791D01*
X150798685Y-70791475D01*
X150735554Y-70850907D01*
X150671227Y-70909069D01*
X150605723Y-70965942D01*
X150805882Y-71728303D01*
X149819520Y-72297773D01*
X149259411Y-71743221D01*
X149177407Y-71771515D01*
X149094876Y-71798145D01*
X149011842Y-71823105D01*
X148928331Y-71846387D01*
X148844368Y-71867986D01*
X148759980Y-71887892D01*
X148675192Y-71906101D01*
X148590028Y-71922606D01*
X148382189Y-72682910D01*
X147243248Y-72682910D01*
X147035408Y-71922606D01*
X146950245Y-71906101D01*
X146865456Y-71887892D01*
X146781068Y-71867986D01*
X146697106Y-71846387D01*
X146613595Y-71823105D01*
X146530561Y-71798145D01*
X146448029Y-71771515D01*
X146366025Y-71743221D01*
X145805883Y-72297773D01*
X144819521Y-71728303D01*
X145019716Y-70965944D01*
X144954212Y-70909072D01*
X144889885Y-70850910D01*
X144826754Y-70791478D01*
X144764837Y-70730794D01*
X144704154Y-70668877D01*
X144644722Y-70605746D01*
X144586560Y-70541419D01*
X144529687Y-70475915D01*
X143767326Y-70676075D01*
X143197855Y-69689713D01*
X143752408Y-69129604D01*
X143724114Y-69047600D01*
X143697484Y-68965068D01*
X143672524Y-68882034D01*
X143649241Y-68798523D01*
X143627643Y-68714560D01*
X143607737Y-68630172D01*
X143589528Y-68545384D01*
X143573024Y-68460220D01*
X142812720Y-68252381D01*
X142812720Y-67682911D01*
X144364443Y-67682911D01*
X144368681Y-67853901D01*
X144381317Y-68023731D01*
X144402233Y-68192117D01*
X144431313Y-68358778D01*
X144468439Y-68523430D01*
X144513495Y-68685791D01*
X144566364Y-68845578D01*
X144626927Y-69002509D01*
X144695069Y-69156301D01*
X144770672Y-69306671D01*
X144853619Y-69453337D01*
X144943794Y-69596016D01*
X145041078Y-69734425D01*
X145145355Y-69868282D01*
X145256507Y-69997305D01*
X145374419Y-70121210D01*
X145498324Y-70239121D01*
X145627346Y-70350274D01*
X145761203Y-70454551D01*
X145899613Y-70551835D01*
X146042292Y-70642009D01*
X146188958Y-70724956D01*
X146339328Y-70800559D01*
X146493120Y-70868701D01*
X146650051Y-70929265D01*
X146809838Y-70982133D01*
X146972199Y-71027189D01*
X147136852Y-71064316D01*
X147303512Y-71093396D01*
X147471899Y-71114312D01*
X147641728Y-71126948D01*
X147812719Y-71131186D01*
X147983709Y-71126948D01*
X148153538Y-71114312D01*
X148321925Y-71093396D01*
X148488585Y-71064316D01*
X148653237Y-71027189D01*
X148815598Y-70982133D01*
X148975385Y-70929265D01*
X149132316Y-70868701D01*
X149286108Y-70800559D01*
X149436478Y-70724956D01*
X149583144Y-70642009D01*
X149725823Y-70551835D01*
X149864233Y-70454551D01*
X149998090Y-70350274D01*
X150127112Y-70239121D01*
X150251017Y-70121210D01*
X150368929Y-69997305D01*
X150480082Y-69868282D01*
X150584359Y-69734425D01*
X150681643Y-69596015D01*
X150771817Y-69453336D01*
X150854764Y-69306670D01*
X150930367Y-69156300D01*
X150998509Y-69002508D01*
X151059073Y-68845577D01*
X151111941Y-68685790D01*
X151156997Y-68523429D01*
X151194124Y-68358777D01*
X151223204Y-68192116D01*
X151244120Y-68023730D01*
X151256756Y-67853901D01*
X151260993Y-67682911D01*
X151260532Y-67626472D01*
X151259147Y-67570061D01*
X151256839Y-67513689D01*
X151253610Y-67457367D01*
X151249461Y-67401107D01*
X151244390Y-67344918D01*
X151238401Y-67288813D01*
X151231492Y-67232802D01*
X151206724Y-67073256D01*
X151174887Y-66916404D01*
X151136160Y-66762400D01*
X151090718Y-66611401D01*
X151038741Y-66463561D01*
X150980405Y-66319037D01*
X150915887Y-66177983D01*
X150845365Y-66040556D01*
X150769017Y-65906911D01*
X150687019Y-65777204D01*
X150599548Y-65651589D01*
X150506783Y-65530224D01*
X150408901Y-65413262D01*
X150306079Y-65300860D01*
X150198494Y-65193173D01*
X150086324Y-65090357D01*
X149969746Y-64992567D01*
X149848937Y-64899959D01*
X149724075Y-64812688D01*
X149595337Y-64730910D01*
X149462900Y-64654781D01*
X149326943Y-64584455D01*
X149187641Y-64520089D01*
X149045173Y-64461838D01*
X148899716Y-64409858D01*
X148751447Y-64364303D01*
X148600544Y-64325331D01*
X148447184Y-64293095D01*
X148291544Y-64267752D01*
X148133801Y-64249458D01*
X147974134Y-64238367D01*
X147812719Y-64234636D01*
X147641728Y-64238874D01*
X147471899Y-64251509D01*
X147303512Y-64272426D01*
X147136852Y-64301505D01*
X146972199Y-64338632D01*
X146809838Y-64383688D01*
X146650051Y-64436556D01*
X146493120Y-64497120D01*
X146339328Y-64565262D01*
X146188958Y-64640865D01*
X146042292Y-64723812D01*
X145899613Y-64813986D01*
X145761203Y-64911270D01*
X145627346Y-65015548D01*
X145498324Y-65126700D01*
X145374419Y-65244612D01*
X145256507Y-65368517D01*
X145145355Y-65497539D01*
X145041078Y-65631397D01*
X144943794Y-65769806D01*
X144853619Y-65912485D01*
X144770672Y-66059151D01*
X144695069Y-66209521D01*
X144626927Y-66363313D01*
X144566364Y-66520244D01*
X144513495Y-66680031D01*
X144468439Y-66842392D01*
X144431313Y-67007044D01*
X144402233Y-67173705D01*
X144381317Y-67342091D01*
X144368681Y-67511921D01*
X144364443Y-67682911D01*
X142812720Y-67682911D01*
X142812720Y-67113440D01*
X143573024Y-66905601D01*
X143589528Y-66820437D01*
X143607737Y-66735649D01*
X143627643Y-66651261D01*
X143649241Y-66567299D01*
X143672524Y-66483788D01*
X143697484Y-66400753D01*
X143724114Y-66318222D01*
X143752408Y-66236218D01*
X143197855Y-65676075D01*
X143767326Y-64689714D01*
X144529684Y-64889909D01*
X144586557Y-64824405D01*
X144644719Y-64760078D01*
X144704151Y-64696947D01*
X144764835Y-64635030D01*
X144826752Y-64574346D01*
X144889883Y-64514914D01*
X144954210Y-64456752D01*
X145019714Y-64399879D01*
X144819555Y-63637518D01*
X145805917Y-63068048D01*
X146366025Y-63622600D01*
X146448029Y-63594306D01*
X146530561Y-63567676D01*
X146613595Y-63542717D01*
X146697106Y-63519434D01*
X146781068Y-63497836D01*
X146865456Y-63477929D01*
X146950245Y-63459720D01*
X147035408Y-63443216D01*
X147243248Y-62682912D01*
X148382189Y-62682912D01*
X148590028Y-63443216D01*
X148675192Y-63459720D01*
X148759980Y-63477929D01*
X148844368Y-63497836D01*
X148928330Y-63519434D01*
X149011841Y-63542716D01*
X149094875Y-63567676D01*
X149177407Y-63594306D01*
X149259411Y-63622600D01*
X149819554Y-63068048D01*
X150805916Y-63637518D01*
X150605720Y-64399877D01*
X150671224Y-64456750D01*
X150735551Y-64514912D01*
X150798682Y-64574344D01*
X150860599Y-64635028D01*
X150921283Y-64696945D01*
X150980715Y-64760076D01*
X151038877Y-64824403D01*
X151095750Y-64889907D01*
X151858111Y-64689747D01*
X152427582Y-65676109D01*
X151873029Y-66236218D01*
X151901323Y-66318222D01*
X151927953Y-66400754D01*
X151952913Y-66483788D01*
X151976195Y-66567299D01*
X151997793Y-66651261D01*
X152017700Y-66735649D01*
X152035909Y-66820438D01*
X152052413Y-66905601D01*
X152812717Y-67113440D01*
X152812717Y-67682911D01*
X152812717Y-68252381D01*
G37*
G36*
X150312297Y-74511781D02*
G01*
X149563306Y-74511781D01*
X149563306Y-74281996D01*
X150029013Y-74281996D01*
X150029013Y-73254107D01*
X150312297Y-73254107D01*
X150312297Y-74511781D01*
G37*
G36*
X147941721Y-74972181D02*
G01*
X147956636Y-74973011D01*
X147971321Y-74974396D01*
X147985776Y-74976333D01*
X148000000Y-74978825D01*
X148013994Y-74981870D01*
X148027759Y-74985468D01*
X148041292Y-74989621D01*
X148054596Y-74994327D01*
X148067670Y-74999586D01*
X148080513Y-75005400D01*
X148093126Y-75011766D01*
X148105509Y-75018687D01*
X148117661Y-75026161D01*
X148129583Y-75034188D01*
X148141275Y-75042770D01*
X148152491Y-75051877D01*
X148162982Y-75061484D01*
X148172751Y-75071589D01*
X148181795Y-75082193D01*
X148190116Y-75093296D01*
X148197713Y-75104898D01*
X148204587Y-75116998D01*
X148210738Y-75129598D01*
X148216164Y-75142696D01*
X148220867Y-75156293D01*
X148224847Y-75170388D01*
X148228103Y-75184983D01*
X148230636Y-75200076D01*
X148232444Y-75215669D01*
X148233530Y-75231760D01*
X148233892Y-75248349D01*
X148233639Y-75261524D01*
X148232883Y-75274386D01*
X148231622Y-75286936D01*
X148229857Y-75299174D01*
X148227588Y-75311099D01*
X148224814Y-75322711D01*
X148221536Y-75334011D01*
X148217754Y-75344999D01*
X148213467Y-75355674D01*
X148208677Y-75366037D01*
X148203381Y-75376088D01*
X148197582Y-75385826D01*
X148191278Y-75395251D01*
X148184470Y-75404364D01*
X148177158Y-75413165D01*
X148169341Y-75421653D01*
X148160845Y-75429801D01*
X148151669Y-75437757D01*
X148141813Y-75445522D01*
X148131277Y-75453095D01*
X148120062Y-75460475D01*
X148108167Y-75467664D01*
X148095593Y-75474661D01*
X148082338Y-75481467D01*
X148068404Y-75488080D01*
X148053791Y-75494502D01*
X148038497Y-75500732D01*
X148022524Y-75506769D01*
X148005871Y-75512615D01*
X147988539Y-75518270D01*
X147970526Y-75523732D01*
X147951834Y-75529002D01*
X147938884Y-75532670D01*
X147926345Y-75536479D01*
X147914217Y-75540432D01*
X147902501Y-75544526D01*
X147891195Y-75548764D01*
X147880301Y-75553143D01*
X147869817Y-75557666D01*
X147859745Y-75562330D01*
X147850084Y-75567138D01*
X147840834Y-75572088D01*
X147831995Y-75577180D01*
X147823567Y-75582415D01*
X147815550Y-75587792D01*
X147807944Y-75593312D01*
X147800750Y-75598975D01*
X147793966Y-75604779D01*
X147787509Y-75610688D01*
X147781468Y-75616839D01*
X147775844Y-75623230D01*
X147770637Y-75629863D01*
X147765846Y-75636736D01*
X147761472Y-75643851D01*
X147757514Y-75651208D01*
X147753973Y-75658805D01*
X147750849Y-75666643D01*
X147748141Y-75674723D01*
X147745850Y-75683044D01*
X147743975Y-75691606D01*
X147742517Y-75700410D01*
X147741476Y-75709454D01*
X147740851Y-75718740D01*
X147740642Y-75728267D01*
X147740862Y-75738386D01*
X147741519Y-75748220D01*
X147742616Y-75757768D01*
X147744151Y-75767032D01*
X147746124Y-75776011D01*
X147748536Y-75784705D01*
X147751386Y-75793113D01*
X147754675Y-75801237D01*
X147758402Y-75809075D01*
X147762568Y-75816629D01*
X147767173Y-75823897D01*
X147772216Y-75830881D01*
X147777697Y-75837579D01*
X147783617Y-75843992D01*
X147789976Y-75850121D01*
X147796773Y-75855964D01*
X147803943Y-75861402D01*
X147811420Y-75866489D01*
X147819203Y-75871225D01*
X147827294Y-75875610D01*
X147835692Y-75879645D01*
X147844397Y-75883328D01*
X147853408Y-75886661D01*
X147862727Y-75889643D01*
X147872352Y-75892274D01*
X147882285Y-75894555D01*
X147892524Y-75896484D01*
X147903071Y-75898063D01*
X147913924Y-75899291D01*
X147925084Y-75900168D01*
X147936552Y-75900694D01*
X147948326Y-75900870D01*
X147958401Y-75900727D01*
X147968279Y-75900299D01*
X147977959Y-75899587D01*
X147987443Y-75898589D01*
X147996728Y-75897307D01*
X148005817Y-75895739D01*
X148014708Y-75893886D01*
X148023401Y-75891748D01*
X148031898Y-75889325D01*
X148040197Y-75886617D01*
X148048298Y-75883625D01*
X148056203Y-75880347D01*
X148063910Y-75876784D01*
X148071420Y-75872936D01*
X148078732Y-75868803D01*
X148085847Y-75864385D01*
X148092765Y-75859695D01*
X148099485Y-75854748D01*
X148106008Y-75849543D01*
X148112334Y-75844081D01*
X148118462Y-75838361D01*
X148124393Y-75832383D01*
X148130127Y-75826148D01*
X148135663Y-75819655D01*
X148141002Y-75812904D01*
X148146144Y-75805896D01*
X148151088Y-75798630D01*
X148155835Y-75791107D01*
X148160385Y-75783326D01*
X148164737Y-75775287D01*
X148168892Y-75766991D01*
X148172850Y-75758437D01*
X148280901Y-75809656D01*
X148280901Y-75809658D01*
X148275891Y-75821504D01*
X148270508Y-75833009D01*
X148264753Y-75844175D01*
X148258624Y-75855001D01*
X148252123Y-75865487D01*
X148245250Y-75875634D01*
X148238003Y-75885440D01*
X148230384Y-75894907D01*
X148222392Y-75904033D01*
X148214027Y-75912820D01*
X148205289Y-75921267D01*
X148196179Y-75929375D01*
X148186696Y-75937142D01*
X148176840Y-75944569D01*
X148166611Y-75951657D01*
X148156010Y-75958405D01*
X148145066Y-75964692D01*
X148133810Y-75970574D01*
X148122241Y-75976050D01*
X148110360Y-75981120D01*
X148098167Y-75985785D01*
X148085661Y-75990044D01*
X148072842Y-75993897D01*
X148059711Y-75997345D01*
X148046268Y-76000388D01*
X148032512Y-76003024D01*
X148018443Y-76005255D01*
X148004063Y-76007081D01*
X147989369Y-76008500D01*
X147974364Y-76009514D01*
X147959045Y-76010123D01*
X147943415Y-76010326D01*
X147924484Y-76009994D01*
X147906108Y-76008999D01*
X147888285Y-76007341D01*
X147871015Y-76005020D01*
X147854299Y-76002035D01*
X147838137Y-75998387D01*
X147822528Y-75994076D01*
X147807473Y-75989101D01*
X147792972Y-75983463D01*
X147779024Y-75977162D01*
X147765630Y-75970198D01*
X147752790Y-75962571D01*
X147740503Y-75954280D01*
X147728770Y-75945326D01*
X147717590Y-75935708D01*
X147706964Y-75925428D01*
X147696854Y-75914673D01*
X147687395Y-75903633D01*
X147678589Y-75892308D01*
X147670435Y-75880698D01*
X147662934Y-75868803D01*
X147656085Y-75856623D01*
X147649888Y-75844158D01*
X147644343Y-75831408D01*
X147639451Y-75818373D01*
X147635211Y-75805053D01*
X147631623Y-75791448D01*
X147628688Y-75777558D01*
X147626405Y-75763383D01*
X147624774Y-75748922D01*
X147623795Y-75734177D01*
X147623469Y-75719147D01*
X147623732Y-75704424D01*
X147624522Y-75690073D01*
X147625837Y-75676095D01*
X147627679Y-75662490D01*
X147630047Y-75649258D01*
X147632941Y-75636398D01*
X147636362Y-75623911D01*
X147640308Y-75611797D01*
X147644781Y-75600056D01*
X147649781Y-75588687D01*
X147655306Y-75577691D01*
X147661358Y-75567068D01*
X147667935Y-75556817D01*
X147675039Y-75546940D01*
X147682670Y-75537435D01*
X147690826Y-75528302D01*
X147699610Y-75519387D01*
X147709124Y-75510706D01*
X147719366Y-75502262D01*
X147730337Y-75494053D01*
X147742037Y-75486081D01*
X147754467Y-75478343D01*
X147767625Y-75470842D01*
X147781513Y-75463576D01*
X147796129Y-75456546D01*
X147811475Y-75449752D01*
X147827549Y-75443193D01*
X147844353Y-75436870D01*
X147861886Y-75430783D01*
X147880147Y-75424932D01*
X147899138Y-75419316D01*
X147918858Y-75413936D01*
X147932370Y-75410299D01*
X147945366Y-75406580D01*
X147957848Y-75402778D01*
X147969814Y-75398894D01*
X147981265Y-75394928D01*
X147992201Y-75390880D01*
X148002621Y-75386750D01*
X148012526Y-75382537D01*
X148021916Y-75378243D01*
X148030791Y-75373866D01*
X148039150Y-75369406D01*
X148046994Y-75364865D01*
X148054323Y-75360241D01*
X148061136Y-75355535D01*
X148067434Y-75350747D01*
X148073217Y-75345877D01*
X148078485Y-75340839D01*
X148083413Y-75335550D01*
X148088001Y-75330008D01*
X148092249Y-75324214D01*
X148096158Y-75318168D01*
X148099726Y-75311869D01*
X148102955Y-75305319D01*
X148105844Y-75298516D01*
X148108392Y-75291462D01*
X148110602Y-75284155D01*
X148112471Y-75276596D01*
X148114000Y-75268784D01*
X148115190Y-75260721D01*
X148116039Y-75252405D01*
X148116549Y-75243838D01*
X148116719Y-75235018D01*
X148116524Y-75226193D01*
X148115940Y-75217609D01*
X148114968Y-75209266D01*
X148113605Y-75201164D01*
X148111854Y-75193304D01*
X148109714Y-75185684D01*
X148107184Y-75178306D01*
X148104265Y-75171169D01*
X148100957Y-75164274D01*
X148097260Y-75157619D01*
X148093173Y-75151206D01*
X148088697Y-75145033D01*
X148083833Y-75139102D01*
X148078578Y-75133413D01*
X148072935Y-75127964D01*
X148066903Y-75122756D01*
X148060440Y-75117744D01*
X148053681Y-75113054D01*
X148046627Y-75108688D01*
X148039276Y-75104646D01*
X148031629Y-75100926D01*
X148023687Y-75097531D01*
X148015448Y-75094458D01*
X148006913Y-75091709D01*
X147998082Y-75089284D01*
X147988956Y-75087182D01*
X147979533Y-75085403D01*
X147969814Y-75083947D01*
X147959799Y-75082816D01*
X147949489Y-75082007D01*
X147938882Y-75081522D01*
X147927979Y-75081360D01*
X147919537Y-75081478D01*
X147911227Y-75081832D01*
X147903049Y-75082421D01*
X147895002Y-75083246D01*
X147887087Y-75084306D01*
X147879303Y-75085603D01*
X147871651Y-75087135D01*
X147864130Y-75088903D01*
X147856741Y-75090906D01*
X147849484Y-75093145D01*
X147842358Y-75095620D01*
X147835363Y-75098331D01*
X147828501Y-75101277D01*
X147821769Y-75104459D01*
X147815170Y-75107876D01*
X147808701Y-75111530D01*
X147802277Y-75115369D01*
X147795984Y-75119522D01*
X147789823Y-75123986D01*
X147783793Y-75128764D01*
X147777895Y-75133853D01*
X147772128Y-75139255D01*
X147766493Y-75144970D01*
X147760990Y-75150997D01*
X147755618Y-75157336D01*
X147750378Y-75163988D01*
X147745269Y-75170952D01*
X147740292Y-75178229D01*
X147735446Y-75185818D01*
X147730732Y-75193720D01*
X147726150Y-75201934D01*
X147721699Y-75210460D01*
X147617856Y-75164853D01*
X147624195Y-75152775D01*
X147630759Y-75141097D01*
X147637548Y-75129818D01*
X147644562Y-75118940D01*
X147651800Y-75108462D01*
X147659263Y-75098385D01*
X147666951Y-75088707D01*
X147674864Y-75079430D01*
X147683001Y-75070552D01*
X147691363Y-75062075D01*
X147699950Y-75053998D01*
X147708762Y-75046321D01*
X147717798Y-75039045D01*
X147727059Y-75032168D01*
X147736545Y-75025692D01*
X147746256Y-75019616D01*
X147756087Y-75013838D01*
X147766109Y-75008433D01*
X147776324Y-75003401D01*
X147786731Y-74998742D01*
X147797329Y-74994455D01*
X147808120Y-74990541D01*
X147819102Y-74987000D01*
X147830276Y-74983832D01*
X147841642Y-74981036D01*
X147853200Y-74978613D01*
X147864949Y-74976563D01*
X147876891Y-74974886D01*
X147889024Y-74973581D01*
X147901349Y-74972650D01*
X147913866Y-74972091D01*
X147926575Y-74971904D01*
X147941721Y-74972181D01*
G37*
G36*
X149259324Y-74511781D02*
G01*
X148505071Y-74511781D01*
X148505071Y-74281997D01*
X148976040Y-74281997D01*
X148976040Y-73994328D01*
X148564709Y-73994328D01*
X148564709Y-73764544D01*
X148976040Y-73764544D01*
X148976040Y-73484768D01*
X148534013Y-73484768D01*
X148534013Y-73254107D01*
X149259324Y-73254107D01*
X149259324Y-74511781D01*
G37*
G36*
X150568232Y-75695991D02*
G01*
X150568057Y-75742299D01*
X150567837Y-75762822D01*
X150567530Y-75781591D01*
X150567135Y-75798561D01*
X150566653Y-75813690D01*
X150566083Y-75826977D01*
X150565425Y-75838423D01*
X150568232Y-75838423D01*
X150576827Y-75823338D01*
X150580730Y-75816585D01*
X150584370Y-75810358D01*
X150588272Y-75803517D01*
X150592964Y-75795624D01*
X150598446Y-75786678D01*
X150604717Y-75776679D01*
X151108490Y-74987340D01*
X151261447Y-74987340D01*
X151261447Y-75993485D01*
X151143572Y-75993485D01*
X151143572Y-75266591D01*
X151143616Y-75244490D01*
X151143747Y-75224493D01*
X151143967Y-75206601D01*
X151144274Y-75190814D01*
X151144668Y-75176738D01*
X151145151Y-75164679D01*
X151145425Y-75159406D01*
X151145721Y-75154637D01*
X151146039Y-75150372D01*
X151146379Y-75146612D01*
X151142169Y-75146612D01*
X151128838Y-75167661D01*
X151125987Y-75171783D01*
X151122348Y-75177133D01*
X151112700Y-75191516D01*
X150594893Y-75993485D01*
X150450357Y-75993485D01*
X150450357Y-74987340D01*
X150568232Y-74987340D01*
X150568232Y-75695991D01*
G37*
D11*
X151146054Y-77802730D02*
X151146054Y-76802730D01*
X151146054Y-76802730D02*
X150812721Y-77517015D01*
X150812721Y-77517015D02*
X150479388Y-76802730D01*
X150479388Y-76802730D02*
X150479388Y-77802730D01*
X149574626Y-77802730D02*
X149574626Y-77278920D01*
X149574626Y-77278920D02*
X149622245Y-77183682D01*
X149622245Y-77183682D02*
X149717483Y-77136063D01*
X149717483Y-77136063D02*
X149907959Y-77136063D01*
X149907959Y-77136063D02*
X150003197Y-77183682D01*
X149574626Y-77755111D02*
X149669864Y-77802730D01*
X149669864Y-77802730D02*
X149907959Y-77802730D01*
X149907959Y-77802730D02*
X150003197Y-77755111D01*
X150003197Y-77755111D02*
X150050816Y-77659872D01*
X150050816Y-77659872D02*
X150050816Y-77564634D01*
X150050816Y-77564634D02*
X150003197Y-77469396D01*
X150003197Y-77469396D02*
X149907959Y-77421777D01*
X149907959Y-77421777D02*
X149669864Y-77421777D01*
X149669864Y-77421777D02*
X149574626Y-77374158D01*
X148669864Y-77755111D02*
X148765102Y-77802730D01*
X148765102Y-77802730D02*
X148955578Y-77802730D01*
X148955578Y-77802730D02*
X149050816Y-77755111D01*
X149050816Y-77755111D02*
X149098435Y-77707491D01*
X149098435Y-77707491D02*
X149146054Y-77612253D01*
X149146054Y-77612253D02*
X149146054Y-77326539D01*
X149146054Y-77326539D02*
X149098435Y-77231301D01*
X149098435Y-77231301D02*
X149050816Y-77183682D01*
X149050816Y-77183682D02*
X148955578Y-77136063D01*
X148955578Y-77136063D02*
X148765102Y-77136063D01*
X148765102Y-77136063D02*
X148669864Y-77183682D01*
X148241292Y-77802730D02*
X148241292Y-77136063D01*
X148241292Y-77326539D02*
X148193673Y-77231301D01*
X148193673Y-77231301D02*
X148146054Y-77183682D01*
X148146054Y-77183682D02*
X148050816Y-77136063D01*
X148050816Y-77136063D02*
X147955578Y-77136063D01*
X147479387Y-77802730D02*
X147574625Y-77755111D01*
X147574625Y-77755111D02*
X147622244Y-77707491D01*
X147622244Y-77707491D02*
X147669863Y-77612253D01*
X147669863Y-77612253D02*
X147669863Y-77326539D01*
X147669863Y-77326539D02*
X147622244Y-77231301D01*
X147622244Y-77231301D02*
X147574625Y-77183682D01*
X147574625Y-77183682D02*
X147479387Y-77136063D01*
X147479387Y-77136063D02*
X147336530Y-77136063D01*
X147336530Y-77136063D02*
X147241292Y-77183682D01*
X147241292Y-77183682D02*
X147193673Y-77231301D01*
X147193673Y-77231301D02*
X147146054Y-77326539D01*
X147146054Y-77326539D02*
X147146054Y-77612253D01*
X147146054Y-77612253D02*
X147193673Y-77707491D01*
X147193673Y-77707491D02*
X147241292Y-77755111D01*
X147241292Y-77755111D02*
X147336530Y-77802730D01*
X147336530Y-77802730D02*
X147479387Y-77802730D01*
X146717482Y-77136063D02*
X146717482Y-78136063D01*
X146717482Y-77183682D02*
X146622244Y-77136063D01*
X146622244Y-77136063D02*
X146431768Y-77136063D01*
X146431768Y-77136063D02*
X146336530Y-77183682D01*
X146336530Y-77183682D02*
X146288911Y-77231301D01*
X146288911Y-77231301D02*
X146241292Y-77326539D01*
X146241292Y-77326539D02*
X146241292Y-77612253D01*
X146241292Y-77612253D02*
X146288911Y-77707491D01*
X146288911Y-77707491D02*
X146336530Y-77755111D01*
X146336530Y-77755111D02*
X146431768Y-77802730D01*
X146431768Y-77802730D02*
X146622244Y-77802730D01*
X146622244Y-77802730D02*
X146717482Y-77755111D01*
X145384149Y-77802730D02*
X145384149Y-77278920D01*
X145384149Y-77278920D02*
X145431768Y-77183682D01*
X145431768Y-77183682D02*
X145527006Y-77136063D01*
X145527006Y-77136063D02*
X145717482Y-77136063D01*
X145717482Y-77136063D02*
X145812720Y-77183682D01*
X145384149Y-77755111D02*
X145479387Y-77802730D01*
X145479387Y-77802730D02*
X145717482Y-77802730D01*
X145717482Y-77802730D02*
X145812720Y-77755111D01*
X145812720Y-77755111D02*
X145860339Y-77659872D01*
X145860339Y-77659872D02*
X145860339Y-77564634D01*
X145860339Y-77564634D02*
X145812720Y-77469396D01*
X145812720Y-77469396D02*
X145717482Y-77421777D01*
X145717482Y-77421777D02*
X145479387Y-77421777D01*
X145479387Y-77421777D02*
X145384149Y-77374158D01*
X144479387Y-77802730D02*
X144479387Y-76802730D01*
X144479387Y-77755111D02*
X144574625Y-77802730D01*
X144574625Y-77802730D02*
X144765101Y-77802730D01*
X144765101Y-77802730D02*
X144860339Y-77755111D01*
X144860339Y-77755111D02*
X144907958Y-77707491D01*
X144907958Y-77707491D02*
X144955577Y-77612253D01*
X144955577Y-77612253D02*
X144955577Y-77326539D01*
X144955577Y-77326539D02*
X144907958Y-77231301D01*
X144907958Y-77231301D02*
X144860339Y-77183682D01*
X144860339Y-77183682D02*
X144765101Y-77136063D01*
X144765101Y-77136063D02*
X144574625Y-77136063D01*
X144574625Y-77136063D02*
X144479387Y-77183682D01*
%LPC*%
D12*
X99760000Y-62510000D03*
X99760000Y-65050000D03*
X99760000Y-67590000D03*
X99760000Y-70130000D03*
X99760000Y-72670000D03*
X99760000Y-75210000D03*
X99760000Y-77750000D03*
X115000000Y-77750000D03*
X115000000Y-75210000D03*
X115000000Y-72670000D03*
X115000000Y-70130000D03*
X115000000Y-67590000D03*
X115000000Y-65050000D03*
X115000000Y-62510000D03*
D13*
X102380000Y-109130000D03*
D14*
X107460000Y-109130000D03*
D13*
X112540000Y-109130000D03*
D15*
X110000000Y-104050000D03*
X103650000Y-106590000D03*
D13*
X121430000Y-109130000D03*
D14*
X126510000Y-109130000D03*
D13*
X131590000Y-109130000D03*
D15*
X129050000Y-104050000D03*
X122700000Y-106590000D03*
D13*
X121430000Y-90080000D03*
D14*
X126510000Y-90080000D03*
D13*
X131590000Y-90080000D03*
D15*
X129050000Y-85000000D03*
X122700000Y-87540000D03*
D13*
X102380000Y-90080000D03*
D14*
X107460000Y-90080000D03*
D13*
X112540000Y-90080000D03*
D15*
X110000000Y-85000000D03*
X103650000Y-87540000D03*
D13*
X140480000Y-90080000D03*
D14*
X145560000Y-90080000D03*
D13*
X150640000Y-90080000D03*
D15*
X148100000Y-85000000D03*
X141750000Y-87540000D03*
D13*
X102380000Y-128180000D03*
D14*
X107460000Y-128180000D03*
D13*
X112540000Y-128180000D03*
D15*
X110000000Y-123100000D03*
X103650000Y-125640000D03*
D13*
X140480000Y-109130000D03*
D14*
X145560000Y-109130000D03*
D13*
X150640000Y-109130000D03*
D15*
X148100000Y-104050000D03*
X141750000Y-106590000D03*
D13*
X121430000Y-128180000D03*
D14*
X126510000Y-128180000D03*
D13*
X131590000Y-128180000D03*
D15*
X129050000Y-123100000D03*
X122700000Y-125640000D03*
D13*
X140480000Y-128180000D03*
D14*
X145560000Y-128180000D03*
D13*
X150640000Y-128180000D03*
D15*
X148100000Y-123100000D03*
X141750000Y-125640000D03*
D16*
X121000000Y-73876500D03*
D17*
X121000000Y-71336500D03*
X121000000Y-68796500D03*
X121000000Y-66256500D03*
%LPD*%
M02*
