M48
; DRILL file {KiCad 9.0.6} date 2025-12-23T13:38:57+0100
; FORMAT={-:-/ absolute / metric / decimal}
; #@! TF.CreationDate,2025-12-23T13:38:57+01:00
; #@! TF.GenerationSoftware,Kicad,Pcbnew,9.0.6
; #@! TF.FileFunction,Plated,1,2,PTH
FMAT,2
METRIC
; #@! TA.AperFunction,Plated,PTH,ComponentDrill
T1C0.889
; #@! TA.AperFunction,Plated,PTH,ComponentDrill
T2C1.000
; #@! TA.AperFunction,Plated,PTH,ComponentDrill
T3C1.500
%
G90
G05
T1
X99.76Y-62.51
X99.76Y-65.05
X99.76Y-67.59
X99.76Y-70.13
X99.76Y-72.67
X99.76Y-75.21
X99.76Y-77.75
X115.0Y-62.51
X115.0Y-65.05
X115.0Y-67.59
X115.0Y-70.13
X115.0Y-72.67
X115.0Y-75.21
X115.0Y-77.75
T2
X121.0Y-66.257
X121.0Y-68.796
X121.0Y-71.337
X121.0Y-73.876
T3
X103.65Y-87.54
X103.65Y-106.59
X103.65Y-125.64
X110.0Y-85.0
X110.0Y-104.05
X110.0Y-123.1
X122.7Y-87.54
X122.7Y-106.59
X122.7Y-125.64
X129.05Y-85.0
X129.05Y-104.05
X129.05Y-123.1
X141.75Y-87.54
X141.75Y-106.59
X141.75Y-125.64
X148.1Y-85.0
X148.1Y-104.05
X148.1Y-123.1
M30
